<svg xmlns="http://www.w3.org/2000/svg" width="32" height="32" viewBox="0 0 32 32" fill="none" class="category-card__sale-label_item" data-v-6fddf35b=""><g clip-path="url(#s33qjj8o3vo)"><path d="M31.9962 15.7702C31.9962 24.7305 31.553 27.1341 29.4568 29.2334C27.3703 31.3207 24.9554 31.7736 15.9981 31.7736C7.04079 31.7736 4.62598 31.3207 2.53938 29.2429C0.443195 27.1341 0 24.7424 0 15.7798C0 6.8171 0.452778 4.41587 2.53938 2.31659C4.62598 0.229294 7.04079 -0.223633 15.9981 -0.223633C24.9554 -0.223633 27.3582 0.229294 29.4568 2.307C31.553 4.41587 31.9962 6.80751 31.9962 15.7702Z" fill="white"></path> <path d="M17.9034 4.77637H13.5795C8.29781 4.77637 4 9.55312 4 15.4253C4 21.2976 8.29781 26.0743 13.5795 26.0743H17.9034C23.0889 26.0743 27 21.4958 27 15.4253C27 9.35485 23.0889 4.77637 17.9034 4.77637ZM23.1362 16.1243H25.5968C25.5609 16.7604 25.476 17.375 25.3455 17.9633H22.8817C23.0138 17.3684 23.0987 16.7538 23.1362 16.1243ZM23.1362 14.7248C23.0987 14.0837 23.0106 13.4575 22.8751 12.8527H25.3373C25.4711 13.4509 25.5592 14.0771 25.5968 14.7248H23.1362ZM24.9213 11.4549H22.4656C21.6579 9.22927 20.1927 7.37541 18.3391 6.18907C21.3397 6.37082 23.7823 8.42461 24.9229 11.4549H24.9213ZM5.38202 15.4253C5.38202 10.3247 9.0598 6.17585 13.5795 6.17585C18.0992 6.17585 21.777 10.3247 21.777 15.4253C21.777 20.5259 18.0992 24.6748 13.5795 24.6748C9.0598 24.6748 5.38202 20.5243 5.38202 15.4253ZM18.3391 24.66C20.2025 23.4687 21.6726 21.6016 22.4786 19.3611H24.9359C23.8003 22.4095 21.3512 24.4782 18.3407 24.66H18.3391Z" fill="black"></path> <path d="M13.5378 12.2278L12.4543 11.3604L9.27747 15.4233L12.4527 19.4962L13.5378 18.6288L11.5846 16.1239H17.4064V14.7244H11.5863L13.5378 12.2278Z" fill="black"></path> <path d="M29.4568 2.307C27.3582 0.229294 24.9459 -0.223633 15.9981 -0.223633C7.05037 -0.223633 4.62598 0.229294 2.53938 2.31659C0.452778 4.41587 0 6.81949 0 15.7798C0 24.7401 0.443195 27.1341 2.53938 29.2429C4.62598 31.3207 7.04079 31.7736 15.9981 31.7736C24.9554 31.7736 27.3703 31.3207 29.4568 29.2334C31.553 27.1341 31.9962 24.7305 31.9962 15.7702C31.9962 6.80991 31.553 4.41587 29.4568 2.307ZM29.0879 28.8739C27.1283 30.8461 24.8309 31.268 15.9981 31.268C7.16536 31.268 4.86794 30.8342 2.90831 28.8644C0.936696 26.9136 0.505481 24.6562 0.505481 15.7798C0.505481 6.90337 0.936696 4.65791 2.90831 2.68565C4.85836 0.715771 7.15578 0.282015 15.9981 0.282015C24.8404 0.282015 27.1283 0.715771 29.0879 2.68565C31.0571 4.64833 31.4907 6.90337 31.4907 15.7798C31.4907 24.6562 31.0571 26.9136 29.0879 28.8739Z" fill="#222222"></path></g> <defs><clipPath id="s33qjj8o3vo"><rect width="32" height="32" fill="white" transform="translate(0 -0.223633)"></rect></clipPath></defs></svg>