<svg width="32" height="32" viewBox="0 0 32 32" fill="none" xmlns="http://www.w3.org/2000/svg" class="category-card__sale-label_item" data-v-31bad156="" data-v-6fddf35b=""><g clip-path="url(#i1nvdlu6im)" data-v-31bad156=""><path d="M31.9962 15.9938C31.9962 24.9542 31.553 27.3578 29.4568 29.457C27.3703 31.5443 24.9554 31.9972 15.9981 31.9972C7.04079 31.9972 4.62598 31.5443 2.53938 29.4666C0.443195 27.3578 0 24.9661 0 16.0034C0 7.04073 0.452778 4.6395 2.53938 2.54023C4.62598 0.452926 7.04079 0 15.9981 0C24.9554 0 27.3582 0.452926 29.4568 2.53064C31.553 4.6395 31.9962 7.03114 31.9962 15.9938Z" fill="white" data-v-31bad156=""></path> <g clip-path="url(#cmt3ar71e28)" data-v-31bad156=""><path d="M19.5682 28.0003C19.0544 27.8049 19.058 27.4622 18.9916 26.9853C18.9079 26.3819 18.9103 25.6947 18.8074 25.1069C18.7984 25.0554 18.7918 25.0165 18.7338 25.0015L10.9103 24.9895C9.98082 24.8673 9.23196 24.1213 9.13447 23.18L9.12669 18.1644L6.53979 15.5533C6.25089 15.1842 6.08462 14.7552 6.00686 14.2933L6.00507 5.60183C6.0577 5.31124 6.27183 5.09374 6.56611 5.04102C8.08117 5.11891 9.72004 4.92418 11.2201 5.03503C11.902 5.08536 11.9182 5.49039 11.9959 6.0518C12.082 6.67194 12.1048 7.30585 12.1849 7.92658C12.1909 7.97092 12.2071 8.07757 12.2549 8.08895L21.2035 8.08536C21.5743 8.09614 21.8423 8.36397 21.8525 8.73545L21.8596 14.8727L24.4465 17.4838C24.7354 17.8529 24.9017 18.2819 24.9795 18.7438C24.9645 21.6857 25.0375 24.6432 24.9424 27.5761C24.8599 27.8008 24.6888 27.8924 24.4926 28.0003L19.5676 28.0003L19.5682 28.0003ZM10.6585 6.38254L7.34547 6.38254L7.34547 14.2537C7.34547 14.3017 7.52371 14.6396 7.56917 14.7019L9.13626 16.2495L9.13627 11.204C9.13627 11.0949 9.40542 10.8289 9.52146 10.7822C9.84624 10.6516 10.0478 10.7342 10.3008 10.9344C10.7817 11.3142 11.4839 12.5401 12.1777 12.053C12.5881 11.7648 12.4439 11.3214 12.2639 10.9416C11.9134 10.1998 11.314 9.46463 10.9486 8.71627L10.6585 6.38314L10.6585 6.38254ZM20.5085 9.43287L12.9422 9.43287C13.2801 10.0542 13.7353 10.6534 13.7867 11.3891C13.9129 13.1854 11.8183 14.1692 10.4797 13.0206L10.4797 21.0937L11.0826 20.9577L17.2576 20.9625C17.6644 19.5599 19.4097 19.0644 20.5085 20.0177L20.5085 9.43287ZM23.6427 26.6546L23.6427 18.7834C23.6427 18.7354 23.4644 18.3975 23.419 18.3352L21.8519 16.7876L21.8519 21.8331C21.8519 21.9422 21.5827 22.2082 21.4667 22.2549C21.1419 22.3855 20.9403 22.3029 20.6873 22.1027C20.2064 21.7229 19.5042 20.497 18.8104 20.9841C18.4001 21.2723 18.5442 21.7157 18.7243 22.0955C19.0748 22.8373 19.6741 23.5725 20.0395 24.3208L20.3296 26.654L23.6427 26.654L23.6427 26.6546ZM10.9946 23.6498L18.0908 23.6498C17.8384 23.2118 17.5208 22.7996 17.3683 22.3106L11.0497 22.3154C10.2643 22.4472 10.3349 23.5407 10.994 23.6504L10.9946 23.6498Z" fill="black" data-v-31bad156=""></path> <path d="M16.1657 15.8466L16.1657 17.6633C16.1657 17.9126 15.762 18.2133 15.5119 18.2199C15.2476 18.2265 14.8223 17.9287 14.8223 17.6633L14.8223 15.8466C14.7116 15.9006 14.6506 16.0234 14.5508 16.0905C13.9203 16.5117 13.1655 15.7915 13.6135 15.1516C13.7684 14.9299 14.8636 13.8389 15.0903 13.6711C15.317 13.5033 15.6364 13.4848 15.875 13.6495C16.064 13.7801 17.2411 14.9605 17.3751 15.1516C17.8225 15.7921 17.0677 16.5117 16.4378 16.0905C16.338 16.0234 16.2769 15.9006 16.1663 15.8466L16.1657 15.8466Z" fill="black" data-v-31bad156=""></path></g> <path d="M29.4568 2.53064C27.3582 0.452926 24.9459 0 15.9981 0C7.05037 0 4.62598 0.452927 2.53938 2.54023C0.452778 4.6395 0 7.04312 0 16.0034C0 24.9637 0.443195 27.3578 2.53938 29.4666C4.62598 31.5443 7.04079 31.9972 15.9981 31.9972C24.9554 31.9972 27.3703 31.5443 29.4568 29.457C31.553 27.3578 31.9962 24.9542 31.9962 15.9938C31.9962 7.03355 31.553 4.6395 29.4568 2.53064ZM29.0879 29.0976C27.1283 31.0698 24.8309 31.4916 15.9981 31.4916C7.16536 31.4916 4.86794 31.0579 2.90831 29.088C0.936696 27.1373 0.505481 24.8798 0.505481 16.0034C0.505481 7.12701 0.936696 4.88154 2.90831 2.90928C4.85836 0.939404 7.15578 0.505648 15.9981 0.505648C24.8404 0.505648 27.1283 0.939404 29.0879 2.90928C31.0571 4.87196 31.4907 7.12701 31.4907 16.0034C31.4907 24.8798 31.0571 27.1373 29.0879 29.0976Z" fill="#222222" data-v-31bad156=""></path></g> <defs data-v-31bad156=""><clipPath id="i1nvdlu6im" data-v-31bad156=""><rect width="32" height="32" fill="white" data-v-31bad156=""></rect></clipPath> <clipPath id="cmt3ar71e28" data-v-31bad156=""><rect width="18.987" height="23" fill="white" transform="translate(6.00653 5)" data-v-31bad156=""></rect></clipPath></defs></svg>