<svg width="32" height="32" viewBox="0 0 32 32" fill="none" xmlns="http://www.w3.org/2000/svg" class="category-card__sale-label_item" data-v-6fddf35b=""><g clip-path="url(#n0kt7t8dqco)"><path d="M31.9962 15.9938C31.9962 24.9542 31.553 27.3578 29.4568 29.457C27.3703 31.5443 24.9554 31.9972 15.9981 31.9972C7.04079 31.9972 4.62598 31.5443 2.53938 29.4666C0.443195 27.3578 0 24.9661 0 16.0034C0 7.04073 0.452778 4.6395 2.53938 2.54023C4.62598 0.452926 7.04079 0 15.9981 0C24.9554 0 27.3582 0.452926 29.4568 2.53064C31.553 4.6395 31.9962 7.03114 31.9962 15.9938Z" fill="white"></path> <path d="M29.4568 2.53064C27.3582 0.452926 24.9459 0 15.9981 0C7.05037 0 4.62598 0.452927 2.53938 2.54023C0.452778 4.6395 0 7.04312 0 16.0034C0 24.9637 0.443195 27.3578 2.53938 29.4666C4.62598 31.5443 7.04079 31.9972 15.9981 31.9972C24.9554 31.9972 27.3703 31.5443 29.4568 29.457C31.553 27.3578 31.9962 24.9542 31.9962 15.9938C31.9962 7.03355 31.553 4.6395 29.4568 2.53064ZM29.0879 29.0976C27.1283 31.0698 24.8309 31.4916 15.9981 31.4916C7.16536 31.4916 4.86794 31.0579 2.90831 29.088C0.936696 27.1373 0.505481 24.8798 0.505481 16.0034C0.505481 7.12701 0.936696 4.88154 2.90831 2.90928C4.85836 0.939404 7.15578 0.505648 15.9981 0.505648C24.8404 0.505648 27.1283 0.939404 29.0879 2.90928C31.0571 4.87196 31.4907 7.12701 31.4907 16.0034C31.4907 24.8798 31.0571 27.1373 29.0879 29.0976Z" fill="#010101"></path> <path d="M9.6229 15.9979L7.3159 11.9983L6.88947 11.2601L6.71939 10.9678H5.99351L5.05681 12.3193L6.57086 14.9386H3.39903L2.86719 15.9979L3.39903 17.0547H6.57086L5.05681 19.6765L5.99351 21.028H6.71939L6.88947 20.7356L7.3159 19.9975L9.6229 15.9979Z" fill="#010101"></path> <path d="M12.5774 21.6543H7.96103H7.10817H6.77039L6.40625 22.2846L7.10817 23.7704H10.1339L8.55035 26.5167L9.19957 27.5088L10.3806 27.5736L11.9666 24.8272L13.4806 27.449L15.1168 27.3147L15.4809 26.6845L15.3109 26.3921L14.8844 25.654L12.5774 21.6543Z" fill="#010101"></path> <path d="M19.1066 21.6543L16.7972 25.654L16.3732 26.3921L16.2031 26.6845L16.5672 27.3147L18.2035 27.449L19.7175 24.8272L21.3035 27.5736L22.4845 27.5088L23.1337 26.5167L21.5478 23.7704H24.5758L25.2778 22.2846L24.9137 21.6543H24.5758H23.7231H19.1066Z" fill="#010101"></path> <path d="M29.1268 15.9979L26.8197 11.9983L26.3933 11.2601L26.2233 10.9678H25.4949L24.5607 12.3193L26.0747 14.9386H21.293V17.0547H26.0747L24.5607 19.6765L25.4949 21.028H26.2233L26.3933 20.7356L26.8197 19.9975L29.1268 15.9979Z" fill="#010101"></path> <path d="M19.1066 10.3425H23.7231H24.5758H24.9137L25.2778 9.71223L24.5758 8.22644H21.5478L23.1337 5.48012L22.4845 4.48799L21.3035 4.4209L19.7175 7.16961L18.2035 4.54791L16.5672 4.68211L16.2031 5.31237L16.3732 5.60474L16.7972 6.34284L19.1066 10.3425Z" fill="#010101"></path> <path d="M12.5774 10.3425L14.8844 6.34284L15.3109 5.60474L15.4809 5.31237L15.1168 4.68211L13.4806 4.54791L11.9666 7.16961L10.3806 4.4209L9.19957 4.48799L8.55035 5.48012L10.1339 8.22644H7.10817L6.40625 9.71223L6.77039 10.3425H7.10817H7.96103H12.5774Z" fill="#010101"></path></g> <defs><clipPath id="n0kt7t8dqco"><rect width="32" height="32" fill="white"></rect></clipPath></defs></svg>