<svg data-v-4715b6c5="" width="16" height="16" viewBox="0 0 16 16" fill="none" xmlns="http://www.w3.org/2000/svg" class="google-logo"><g data-v-4715b6c5="" id="Group"><path data-v-4715b6c5="" id="Vector" d="M16.0001 8.18034C16.0001 7.65367 15.9524 7.15366 15.8707 6.66699H8.17371V9.6737H12.5807C12.3832 10.6604 11.8042 11.4937 10.946 12.0604V14.0604H13.5752C15.1146 12.6671 16.0001 10.6137 16.0001 8.18034Z" fill="#5384EC"></path><path data-v-4715b6c5="" id="Vector_2" d="M8.17401 16C10.3809 16 12.2269 15.28 13.5755 14.06L10.9463 12.06C10.2106 12.54 9.27748 12.8333 8.17401 12.8333C6.04202 12.8333 4.23697 11.4266 3.58988 9.52661H0.878906V11.5866C2.22077 14.2 4.97942 16 8.17401 16Z" fill="#58A55C"></path><path data-v-4715b6c5="" id="Vector_3" d="M3.58966 9.52672C3.41937 9.04672 3.33082 8.53338 3.33082 8.00004C3.33082 7.4667 3.42618 6.95336 3.58966 6.47335V4.41333H0.878682C0.320139 5.49334 0 6.70669 0 8.00004C0 9.29339 0.320139 10.5067 0.878682 11.5867L3.58966 9.52672Z" fill="#F1BE42"></path><path data-v-4715b6c5="" id="Vector_4" d="M8.17401 3.1667C9.37965 3.1667 10.4559 3.57338 11.3073 4.36672L13.6368 2.08669C12.2269 0.793343 10.3809 0 8.17401 0C4.97942 0 2.22077 1.80002 0.878906 4.41339L3.58988 6.47341C4.23697 4.57339 6.04202 3.1667 8.17401 3.1667Z" fill="#D85140"></path></g></svg>