<svg width="134" height="46" viewBox="0 0 134 46" fill="none" xmlns="http://www.w3.org/2000/svg"><path d="M126 0H8C3.58172 0 0 3.58172 0 8V38C0 42.4183 3.58172 46 8 46H126C130.418 46 134 42.4183 134 38V8C134 3.58172 130.418 0 126 0Z" fill="#E6E8EE"></path> <path d="M41.32 14.2411C41.448 15.2011 42.12 16.0011 43.36 16.0011C43.96 16.0011 44.44 15.8571 44.808 15.5771C45.176 15.2891 45.36 14.8811 45.36 14.3611C45.36 13.6491 44.968 13.2091 44.4 13.0811C44.968 12.9211 45.28 12.4811 45.28 11.8411C45.28 11.3451 45.104 10.9531 44.76 10.6731C44.416 10.3851 43.968 10.2411 43.4 10.2411C42.352 10.2411 41.696 10.8091 41.48 11.6811L42.28 12.0411C42.4 11.4091 42.792 11.0811 43.36 11.0811C44 11.0811 44.4 11.3931 44.4 11.9051C44.4 12.4251 44.104 12.6811 43.52 12.6811H43.2V13.5211H43.56C44.136 13.5211 44.48 13.8171 44.48 14.3611C44.48 14.8971 44.064 15.1611 43.4 15.1611C42.632 15.1611 42.2 14.6491 42.16 13.9211L41.32 14.2411ZM45.7444 15.9211H46.7364L47.2724 14.5611H50.0404L50.5764 15.9211H51.5684L49.2644 10.3211H48.0484L45.7444 15.9211ZM47.5844 13.7611L48.6564 11.0491L49.7284 13.7611H47.5844ZM52.2401 15.9211H55.0401C56.0721 15.9211 56.8801 15.2731 56.8801 14.4011C56.8801 13.6971 56.4641 13.2011 55.8001 13.0411C56.3681 12.7931 56.6801 12.3531 56.6801 11.8011C56.6801 10.9691 55.9121 10.3211 54.8801 10.3211H52.2401V15.9211ZM53.1201 12.6411V11.1611H54.8401C55.3921 11.1611 55.8001 11.4251 55.8001 11.8811C55.8001 12.3691 55.4721 12.6411 54.8401 12.6411H53.1201ZM53.1201 15.0811V13.4411H55.0001C55.5761 13.4411 55.9601 13.8251 55.9601 14.2811C55.9601 14.7611 55.5681 15.0811 55.0001 15.0811H53.1201ZM57.2523 15.9211H58.2443L58.7803 14.5611H61.5483L62.0843 15.9211H63.0763L60.7723 10.3211H59.5563L57.2523 15.9211ZM59.0923 13.7611L60.1643 11.0491L61.2363 13.7611H59.0923ZM67.6679 13.5611V15.9211H68.5479V10.3211H67.6679V12.7611H64.6279V10.3211H63.7479V15.9211H64.6279V13.5611H67.6679ZM74.309 10.3211H69.349V11.1611H71.389V15.9211H72.269V11.1611H74.309V10.3211ZM73.6663 15.9211H74.6583L75.1943 14.5611H77.9623L78.4983 15.9211H79.4903L77.1863 10.3211H75.9703L73.6663 15.9211ZM75.5063 13.7611L76.5783 11.0491L77.6503 13.7611H75.5063ZM85.0979 13.0011L87.7779 10.3211H86.6179L84.2579 12.6891V10.3211H83.3779V12.6891L81.0179 10.3211H79.8579L82.5379 13.0011L79.6979 15.9211H80.9379L83.3779 13.3851V15.9211H84.2579V13.3851L86.6979 15.9211H87.9379L85.0979 13.0011ZM92.6808 10.9611V15.9211H93.5608V10.3211H92.0328L89.4248 15.2891V10.3211H88.5448V15.9211H90.0728L92.6808 10.9611ZM99.3246 10.3211H94.3646V11.1611H96.4046V15.9211H97.2846V11.1611H99.3246V10.3211ZM104.259 10.9611V15.9211H105.139V10.3211H103.611L101.003 15.2891V10.3211H100.123V15.9211H101.651L104.259 10.9611ZM107.961 14.2411C108.089 15.2011 108.761 16.0011 110.001 16.0011C110.601 16.0011 111.081 15.8571 111.449 15.5771C111.817 15.2891 112.001 14.8811 112.001 14.3611C112.001 13.6491 111.609 13.2091 111.041 13.0811C111.609 12.9211 111.921 12.4811 111.921 11.8411C111.921 11.3451 111.745 10.9531 111.401 10.6731C111.057 10.3851 110.609 10.2411 110.041 10.2411C108.993 10.2411 108.337 10.8091 108.121 11.6811L108.921 12.0411C109.041 11.4091 109.433 11.0811 110.001 11.0811C110.641 11.0811 111.041 11.3931 111.041 11.9051C111.041 12.4251 110.745 12.6811 110.161 12.6811H109.841V13.5211H110.201C110.777 13.5211 111.121 13.8171 111.121 14.3611C111.121 14.8971 110.705 15.1611 110.041 15.1611C109.273 15.1611 108.841 14.6491 108.801 13.9211L107.961 14.2411Z" fill="#222222"></path> <path d="M66.888 25.3636C64.5544 25.3636 62.7072 27.1251 62.7072 29.5714C62.7072 31.92 64.5544 33.7792 66.888 33.7792C69.2215 33.7792 71.0688 32.0178 71.0688 29.5714C71.0688 27.0271 69.2215 25.3636 66.888 25.3636ZM66.888 32.0178C65.624 32.0178 64.5544 30.9415 64.5544 29.4736C64.5544 28.0058 65.624 26.9293 66.888 26.9293C68.152 26.9293 69.2215 27.9078 69.2215 29.4736C69.2215 30.9415 68.152 32.0178 66.888 32.0178ZM57.8457 25.3636C55.5122 25.3636 53.6649 27.1251 53.6649 29.5714C53.6649 31.92 55.5122 33.7792 57.8457 33.7792C60.1792 33.7792 62.0265 32.0178 62.0265 29.5714C62.0265 27.0271 60.1792 25.3636 57.8457 25.3636ZM57.8457 32.0178C56.5817 32.0178 55.5122 30.9415 55.5122 29.4736C55.5122 28.0058 56.5817 26.9293 57.8457 26.9293C59.1097 26.9293 60.1792 27.9078 60.1792 29.4736C60.1792 30.9415 59.1097 32.0178 57.8457 32.0178ZM47.0533 26.6357V28.3972H51.2341C51.137 29.3757 50.748 30.1586 50.2619 30.6479C49.6785 31.235 48.7062 31.92 47.0533 31.92C44.4282 31.92 42.4836 29.865 42.4836 27.2229C42.4836 24.5808 44.5254 22.5258 47.0533 22.5258C48.4146 22.5258 49.4841 23.1129 50.2619 23.7979L51.5259 22.5258C50.4564 21.5472 49.0951 20.7644 47.1506 20.7644C43.6504 20.7644 40.6362 23.7 40.6362 27.2229C40.6362 30.7457 43.6504 33.6814 47.1506 33.6814C49.0951 33.6814 50.4564 33.0943 51.6231 31.8222C52.7898 30.6479 53.1788 28.9843 53.1788 27.7122C53.1788 27.3207 53.1788 26.9293 53.0815 26.6357H47.0533ZM91.1951 28.0058C90.8062 27.0271 89.8339 25.3636 87.6949 25.3636C85.5559 25.3636 83.8057 27.0271 83.8057 29.5714C83.8057 31.92 85.5559 33.7792 87.8894 33.7792C89.7367 33.7792 90.9034 32.605 91.2923 31.92L89.9312 30.9415C89.445 31.6264 88.8617 32.1157 87.8894 32.1157C86.917 32.1157 86.3336 31.7242 85.8475 30.8435L91.3896 28.495L91.1951 28.0058ZM85.5559 29.3757C85.5559 27.81 86.8199 26.9293 87.6949 26.9293C88.3755 26.9293 89.056 27.3207 89.2505 27.81L85.5559 29.3757ZM80.9861 33.3878H82.8335V21.1557H80.9861V33.3878ZM78.0693 26.2444C77.5831 25.755 76.8053 25.2657 75.833 25.2657C73.7912 25.2657 71.8467 27.1251 71.8467 29.4736C71.8467 31.8222 73.694 33.5836 75.833 33.5836C76.8053 33.5836 77.5831 33.0943 77.972 32.605H78.0693V33.1921C78.0693 34.7579 77.1942 35.6386 75.833 35.6386C74.7635 35.6386 73.9857 34.8557 73.7912 34.1707L72.2355 34.8557C72.7217 35.9321 73.8884 37.3021 75.9302 37.3021C78.0693 37.3021 79.8194 36.03 79.8194 32.9965V25.5593H78.0693V26.2444ZM75.9302 32.0178C74.6662 32.0178 73.5967 30.9415 73.5967 29.4736C73.5967 28.0058 74.6662 26.9293 75.9302 26.9293C77.1942 26.9293 78.1665 28.0058 78.1665 29.4736C78.1665 30.9415 77.1942 32.0178 75.9302 32.0178ZM99.6539 21.1557H95.2788V33.3878H97.126V28.7886H99.6539C101.695 28.7886 103.64 27.3207 103.64 24.9721C103.64 22.6236 101.695 21.1557 99.6539 21.1557ZM99.7508 27.0271H97.126V22.8193H99.7508C101.112 22.8193 101.89 23.9936 101.89 24.8743C101.793 25.9508 101.015 27.0271 99.7508 27.0271ZM110.932 25.2657C109.571 25.2657 108.211 25.8529 107.724 27.1251L109.377 27.81C109.766 27.1251 110.349 26.9293 111.03 26.9293C112.002 26.9293 112.877 27.5165 112.975 28.495V28.5929C112.683 28.3972 111.905 28.1036 111.127 28.1036C109.377 28.1036 107.626 29.0821 107.626 30.8435C107.626 32.5071 109.085 33.5836 110.641 33.5836C111.905 33.5836 112.488 32.9965 112.975 32.4093H113.072V33.3878H114.822V28.6907C114.627 26.5379 112.975 25.2657 110.932 25.2657ZM110.738 32.0178C110.155 32.0178 109.279 31.7242 109.279 30.9415C109.279 29.9628 110.349 29.6693 111.224 29.6693C112.002 29.6693 112.39 29.865 112.877 30.0608C112.683 31.235 111.71 32.0178 110.738 32.0178ZM120.947 25.5593L118.906 30.8435H118.808L116.669 25.5593H114.725L117.933 32.9965L116.086 37.1064H117.933L122.892 25.5593H120.947ZM104.613 33.3878H106.46V21.1557H104.613V33.3878Z" fill="#222222"></path> <path d="M10.7864 11.3691C10.4947 11.6627 10.3975 12.1519 10.3975 12.7391V34.3649C10.3975 34.952 10.5919 35.4414 10.8836 35.7348L10.9808 35.8328L23.0372 23.6988V23.5031L10.7864 11.3691Z" fill="url(#1760393751369_1)"></path> <path d="M26.9248 27.8091L22.9385 23.797V23.5035L26.9248 19.4915L27.022 19.5893L31.7862 22.3293C33.1475 23.1121 33.1475 24.3842 31.7862 25.1671L26.9248 27.8091Z" fill="url(#1760393751369_2)"></path> <path d="M27.0243 27.7108L22.9407 23.6008L10.7871 35.8327C11.2732 36.3219 11.9538 36.3219 12.8289 35.9305L27.0243 27.7108Z" fill="url(#1760393751369_3)"></path> <path d="M27.0243 19.4924L12.8289 11.3705C11.9538 10.8812 11.2732 10.9791 10.7871 11.4684L22.9407 23.6021L27.0243 19.4924Z" fill="url(#1760393751369_4)"></path> <path opacity="0.2" d="M26.927 27.6143L12.8289 35.6388C12.0511 36.1281 11.3705 36.0302 10.8843 35.6388L10.7871 35.7367L10.8843 35.8345C11.3705 36.226 12.0511 36.3238 12.8289 35.8345L26.927 27.6143Z" fill="#222222"></path> <path opacity="0.2" d="M10.7864 35.6372C10.4947 35.3437 10.3975 34.8544 10.3975 34.2672V34.3651C10.3975 34.9523 10.5919 35.4415 10.8836 35.7351V35.6372H10.7864ZM31.7878 24.873L26.9264 27.6129L27.0236 27.7109L31.7878 24.9708C32.4684 24.5794 32.7601 24.0901 32.7601 23.6008C32.7601 24.0901 32.3712 24.4815 31.7878 24.873Z" fill="#222222"></path> <path opacity="0.2" d="M12.8282 11.468L31.7878 22.3298C32.3712 22.7213 32.7601 23.1127 32.7601 23.6019C32.7601 23.1127 32.4684 22.6234 31.7878 22.232L12.8282 11.3701C11.467 10.5873 10.3975 11.1744 10.3975 12.7401V12.838C10.3975 11.3701 11.467 10.6852 12.8282 11.468Z" fill="white"></path> <defs><linearGradient id="1760393751369_1" x1="21.8704" y1="12.5532" x2="5.44787" y2="28.8697" gradientUnits="userSpaceOnUse"><stop stop-color="#00A0FF"></stop> <stop offset="0.007" stop-color="#00A1FF"></stop> <stop offset="0.26" stop-color="#00BEFF"></stop> <stop offset="0.512" stop-color="#00D2FF"></stop> <stop offset="0.76" stop-color="#00DFFF"></stop> <stop offset="1" stop-color="#00E3FF"></stop></linearGradient> <linearGradient id="1760393751369_2" x1="33.5694" y1="23.6023" x2="10.043" y2="23.6023" gradientUnits="userSpaceOnUse"><stop stop-color="#FFE000"></stop> <stop offset="0.409" stop-color="#FFBD00"></stop> <stop offset="0.775" stop-color="#FFA500"></stop> <stop offset="1" stop-color="#FF9C00"></stop></linearGradient> <linearGradient id="1760393751369_3" x1="24.8143" y1="25.8475" x2="2.54496" y2="47.9744" gradientUnits="userSpaceOnUse"><stop stop-color="#FF3A44"></stop> <stop offset="1" stop-color="#C31162"></stop></linearGradient> <linearGradient id="1760393751369_4" x1="7.77011" y1="4.20372" x2="17.7147" y2="14.0848" gradientUnits="userSpaceOnUse"><stop stop-color="#32A071"></stop> <stop offset="0.069" stop-color="#2DA771"></stop> <stop offset="0.476" stop-color="#15CF74"></stop> <stop offset="0.801" stop-color="#06E775"></stop> <stop offset="1" stop-color="#00F076"></stop></linearGradient></defs></svg>