<svg width="32" height="32" viewBox="0 0 32 32" fill="none" xmlns="http://www.w3.org/2000/svg" data-v-d46185d4="" class=""><path d="M16 32C24.8366 32 32 24.8366 32 16C32 7.16344 24.8366 0 16 0C7.16344 0 0 7.16344 0 16C0 24.8366 7.16344 32 16 32Z" fill="#F5760D" data-v-d46185d4=""></path><path d="M22.8623 9.99927C23.041 9.99927 23.2102 10.0408 23.3608 10.1145L15.9585 17.39C15.7056 17.6384 15.2943 17.6384 15.0415 17.39L7.63916 10.1145C7.78978 10.0408 7.95892 9.99927 8.13763 9.99927H22.8623Z" fill="white" data-v-d46185d4=""></path><path d="M24 21.266C24 21.8933 23.4897 22.4037 22.8624 22.4037H8.13764C7.51034 22.4037 7 21.8933 7 21.266V11.1382C7 10.9382 7.05207 10.7502 7.14309 10.5867L14.5624 17.8788C14.8141 18.1262 15.1471 18.2624 15.5 18.2624C15.8529 18.2624 16.1859 18.1262 16.4376 17.8788L23.8569 10.5867C23.9479 10.7502 24 10.9382 24 11.1382V21.266Z" fill="white" data-v-d46185d4=""></path></svg>