<svg width="32" height="32" viewBox="0 0 32 32" fill="none" xmlns="http://www.w3.org/2000/svg" data-v-d46185d4="" class=""><path d="M32 16C32 18.1598 31.5768 20.2551 30.7425 22.2282C29.9366 24.1335 28.783 25.8444 27.3137 27.3137C25.8445 28.783 24.1333 29.9366 22.228 30.7424C20.2552 31.5768 18.1598 32 16 32C13.8402 32 11.7449 31.5768 9.77201 30.7424C7.86671 29.9366 6.15557 28.783 4.6863 27.3137C3.21704 25.8444 2.06339 24.1336 1.25758 22.2282C0.423153 20.2551 0 18.1598 0 16C0 13.8402 0.423153 11.7448 1.25758 9.77201C2.06339 7.86671 3.21704 6.15557 4.6863 4.6863C6.15557 3.21704 7.86671 2.06364 9.77201 1.25758C11.7449 0.423152 13.8402 0 16 0C18.1598 0 20.2552 0.423152 22.228 1.25758C24.1333 2.06364 25.8445 3.21704 27.3137 4.6863C28.783 6.15557 29.9366 7.86671 30.7425 9.77201C31.5769 11.7448 32 13.8402 32 16Z" fill="#5CC144" data-v-d46185d4=""></path><path d="M23.7878 23.8923L23.0714 24.8219C22.8252 25.1419 22.4531 25.3415 22.0498 25.3668C21.1416 25.4245 19.1896 25.1891 16.5402 23.6543C12.7443 21.4553 9.90218 17.9096 8.62711 13.7119C7.75812 10.8505 7.98583 8.95189 8.24034 8.08498C8.35432 7.69767 8.63072 7.3787 8.99714 7.20876L10.0618 6.71549C10.5066 6.50946 11.035 6.66548 11.2964 7.07958L13.9585 11.2984C14.246 11.7535 14.1096 12.3556 13.6542 12.6428L12.4704 13.3901C12.3255 13.4814 12.258 13.6568 12.3041 13.8215C12.3191 13.8751 12.3366 13.9357 12.3567 14.003C13.1259 16.5638 14.8574 18.7305 17.1856 20.0462C17.2467 20.0807 17.3021 20.1114 17.3511 20.1377C17.5017 20.2189 17.6876 20.1919 17.8085 20.0709L18.7987 19.0808C19.1793 18.7002 19.7966 18.7002 20.1774 19.0808L23.7047 22.608C24.051 22.9545 24.0866 23.5043 23.7878 23.8923Z" fill="white" data-v-d46185d4=""></path></svg>