<svg width="20" height="22" viewBox="0 0 20 22" fill="none" xmlns="http://www.w3.org/2000/svg" data-v-84357b10="" class=""><path d="M8.43645 17.5522C7.69158 18.0305 5.78917 20.0665 3.44997 20.8924C0.993209 21.7598 0.617671 14.2308 1.30527 7.03148C1.59261 4.02294 1.95955 3.18433 3.29656 2.3496C3.87171 1.99052 4.50501 1.73151 5.16101 1.56004C8.37985 0.718686 12.7246 0.691946 16.5299 2.39789C17.5048 2.83493 18.7903 4.87111 18.7903 4.99615" stroke="#5B636F" stroke-width="1.3" stroke-linecap="round" data-v-84357b10=""></path><path d="M8.43217 17.5513C9.17704 18.0295 10.6279 19.8766 13.4187 20.8914C15.9362 21.8069 15.562 16.725 15.0173 10.5141M15.0173 10.5141C15.0138 10.3071 15.012 10.0715 15.0115 9.8195C15.0068 7.40458 15.5018 3.44377 17.8569 3.97795C18.3838 4.09745 18.8483 4.71223 19.1009 6.2242C19.5595 8.96975 17.5832 11.5932 15.0173 10.5141V10.5141Z" stroke="#5B636F" stroke-width="1.3" stroke-linecap="round" data-v-84357b10=""></path></svg>