<svg xmlns="http://www.w3.org/2000/svg" width="23" height="22" viewBox="0 0 23 22" fill="none" data-v-84357b10="" class=""><path d="M21.4689 11.0255C21.5161 17.8345 14.6156 22.6909 8.21431 20.4416C-1.63722 16.9276 -0.261554 2.61899 10.1253 1.10188C16.0245 0.228222 21.5272 4.9848 21.4689 10.9673V11.0227V11.0255Z" stroke="#626B77" stroke-width="1.3" stroke-miterlimit="10" data-v-84357b10=""></path><path d="M3.21875 5.39292C4.26159 5.63976 5.29611 5.90324 6.24743 6.28876C7.79505 6.88784 9.13466 7.81142 10.7239 8.22745C12.6737 8.74055 15.0894 8.3273 16.393 6.65209C17.1806 5.6564 17.4053 4.36117 17.6244 3.12695" stroke="#626B77" stroke-width="1.3" stroke-miterlimit="10" data-v-84357b10=""></path><path d="M21.0754 13.7756C19.7496 13.2819 17.8747 13.0823 16.4491 13.5981C13.8615 14.3636 12.7188 18.2771 11.0325 20.9812" stroke="#626B77" stroke-width="1.3" stroke-miterlimit="10" data-v-84357b10=""></path></svg>