<svg width="18" height="22" viewBox="0 0 18 22" fill="none" xmlns="http://www.w3.org/2000/svg" data-v-84357b10="" class=""><path d="M14.9271 4.44888C6.74647 -4.31424 0.389326 5.65368 0.80277 11.8141C1.47798 21.875 7.20639 13.0969 8.722 16.3151C9.1438 17.2107 7.12346 20.555 9.5211 20.9327C16.1749 21.981 19.8959 10.2648 14.9271 4.44888Z" stroke="#5B636F" stroke-width="1.3" data-v-84357b10=""></path><path d="M6.09514 11.2403C6.13404 11.8672 5.98443 12.4192 5.74378 12.803C5.5024 13.188 5.20464 13.3602 4.93181 13.3771C4.65897 13.394 4.34221 13.26 4.05508 12.9078C3.76882 12.5567 3.5521 12.0275 3.51319 11.4005C3.47428 10.7736 3.62389 10.2216 3.86455 9.83779C4.10592 9.45283 4.40369 9.28066 4.67652 9.26372C4.94935 9.24679 5.26612 9.38082 5.55325 9.73299C5.83951 10.0841 6.05623 10.6134 6.09514 11.2403Z" stroke="#5B636F" stroke-width="1.3" data-v-84357b10=""></path><path d="M14.0808 13.9061C14.0808 14.764 13.4868 15.3116 12.9251 15.3116C12.3634 15.3116 11.7694 14.764 11.7694 13.9061C11.7694 13.0482 12.3634 12.5006 12.9251 12.5006C13.4868 12.5006 14.0808 13.0482 14.0808 13.9061Z" stroke="#5B636F" stroke-width="1.3" data-v-84357b10=""></path><path d="M13.7392 8.18951C13.8679 9.03772 13.3628 9.66822 12.8074 9.75249C12.2521 9.83675 11.5827 9.38449 11.454 8.53628C11.3252 7.68806 11.8304 7.05757 12.3857 6.9733C12.941 6.88903 13.6105 7.3413 13.7392 8.18951Z" stroke="#5B636F" stroke-width="1.3" data-v-84357b10=""></path><path d="M9.63183 4.27841C10.0093 5.04885 9.71678 5.80191 9.21237 6.04902C8.70796 6.29612 7.93363 6.06572 7.55617 5.29527C7.17871 4.52483 7.47123 3.77178 7.97564 3.52467C8.48005 3.27756 9.25438 3.50797 9.63183 4.27841Z" stroke="#5B636F" stroke-width="1.3" data-v-84357b10=""></path></svg>