<svg data-v-174c3cfc="" xmlns="http://www.w3.org/2000/svg" width="18px" height="15px" viewBox="0 0 18 18" fill="#ff00c5" class="IconAudio icon"><path data-v-174c3cfc="" fill-rule="evenodd" clip-rule="evenodd" d="M14.4487 6.26455V6.90329C14.9818 7.08058 15.2099 7.57961 15.2099 7.91608V10.4092C15.2002 10.9141 14.994 11.2568 14.6822 11.4528C14.505 11.5641 14.3135 11.6134 14.165 11.6376C13.928 12.3101 13.4738 12.7333 12.9385 12.8134C12.3494 12.9016 11.8055 12.543 11.6342 11.9328C11.6281 11.911 11.6229 11.8874 11.6193 11.8609C11.6047 11.7529 11.3991 10.2262 11.387 9.46231C11.3698 8.38009 11.5557 7.15917 11.5664 7.08997C11.568 7.07903 11.5699 7.0693 11.5717 7.06064C11.6377 6.74967 11.7669 6.49346 11.9646 6.29775C12.1606 6.10372 12.3967 5.99613 12.6319 5.93543C12.9346 5.85732 13.2874 5.84831 13.6149 5.85038C13.5955 5.10707 13.4916 4.00387 12.9401 3.05782C12.6123 2.49542 12.1254 1.9882 11.3908 1.64429C10.6523 1.29857 9.63715 1.10572 8.23703 1.2194L8.16992 0.392789C9.67596 0.270516 10.8427 0.472015 11.7424 0.893189C12.6459 1.31616 13.2534 1.94837 13.6566 2.64017C14.4487 3.99902 14.4487 5.58517 14.4487 6.26455ZM12.3847 7.22484C12.3656 7.35092 12.2007 8.47275 12.2162 9.44919C12.2269 10.1229 12.4078 11.5004 12.4381 11.7267C12.5058 11.9421 12.6659 12.0157 12.8157 11.9933C12.9756 11.9693 13.2659 11.8044 13.4236 11.2316C13.4781 11.0337 13.65 10.858 13.8918 10.8353C14.0397 10.8214 14.156 10.804 14.2409 10.7506C14.2754 10.7289 14.3038 10.7013 14.3267 10.6582C14.3503 10.6136 14.3775 10.5342 14.3805 10.397V7.91608C14.3805 7.91517 14.3796 7.89846 14.3697 7.87085C14.3601 7.84382 14.3446 7.8142 14.3231 7.78669C14.2838 7.73674 14.2204 7.68741 14.1072 7.67244C13.8669 7.64068 13.6194 7.43824 13.6194 7.12561V6.6807C13.3084 6.67834 13.055 6.68274 12.8391 6.73845C12.7027 6.77366 12.612 6.82383 12.5481 6.88713C12.4867 6.94787 12.4237 7.04657 12.3847 7.22484Z"></path><path data-v-174c3cfc="" fill-rule="evenodd" clip-rule="evenodd" d="M3.54933 6.26455V6.90329C3.01624 7.08058 2.78817 7.57961 2.78817 7.91608V10.4092C2.79789 10.9141 3.00402 11.2568 3.31585 11.4528C3.49303 11.5641 3.68459 11.6134 3.83301 11.6376C4.07003 12.3101 4.52429 12.7333 5.05957 12.8134C5.64864 12.9016 6.19259 12.543 6.36381 11.9328C6.36993 11.911 6.37514 11.8874 6.37872 11.8609C6.39335 11.7529 6.59898 10.2262 6.61107 9.46231C6.6282 8.38009 6.44233 7.15917 6.43168 7.08997C6.43 7.07903 6.42815 7.0693 6.42631 7.06064C6.36036 6.74967 6.2311 6.49346 6.0334 6.29775C5.8374 6.10372 5.60138 5.99613 5.36612 5.93543C5.06346 5.85732 4.71062 5.84831 4.38311 5.85038C4.40257 5.10707 4.50643 4.00387 5.0579 3.05782C5.38574 2.49542 5.87265 1.9882 6.60728 1.64429C7.34575 1.29857 8.36089 1.10572 9.76101 1.2194L9.82812 0.392789C8.32208 0.270516 7.15532 0.472015 6.25566 0.893189C5.35215 1.31616 4.74468 1.94837 4.34142 2.64017C3.54931 3.99902 3.54933 5.58517 3.54933 6.26455ZM5.61334 7.22484C5.63243 7.35092 5.7973 8.47275 5.78185 9.44919C5.77119 10.1229 5.59029 11.5004 5.55998 11.7267C5.49224 11.9421 5.33212 12.0157 5.18233 11.9933C5.02241 11.9693 4.73213 11.8044 4.57443 11.2316C4.51995 11.0337 4.348 10.858 4.10625 10.8353C3.95838 10.8214 3.84209 10.804 3.75712 10.7506C3.72269 10.7289 3.69422 10.7013 3.67139 10.6582C3.64772 10.6136 3.62059 10.5342 3.6175 10.397V7.91608C3.61755 7.91517 3.61848 7.89846 3.62833 7.87085C3.63798 7.84382 3.6534 7.8142 3.675 7.78669C3.71421 7.73674 3.77764 7.68741 3.89088 7.67244C4.1312 7.64068 4.37866 7.43824 4.37866 7.12561V6.6807C4.68964 6.67834 4.94302 6.68274 5.1589 6.73845C5.29535 6.77366 5.386 6.82383 5.44995 6.88713C5.51131 6.94787 5.57433 7.04657 5.61334 7.22484Z"></path><path data-v-174c3cfc="" fill-rule="evenodd" clip-rule="evenodd" d="M9.74339 14.9225C9.64581 15.0389 9.56173 15.1819 9.49873 15.3593C9.53011 15.3619 9.56149 15.3648 9.59257 15.368C9.70466 15.3793 9.82293 15.3952 9.92647 15.4178C9.94151 15.4211 9.95698 15.4247 9.97271 15.4287C10.4403 15.1813 11.0201 15.08 11.6051 15.0538C12.284 15.0234 13.0251 15.0923 13.7212 15.1998C15.114 15.4149 16.3816 15.7935 16.7223 15.9034C16.7437 15.9103 16.7595 15.9132 16.7703 15.9144C16.7731 15.8943 16.7701 15.8638 16.7526 15.832C16.736 15.8021 16.7013 15.7618 16.6255 15.7324C16.5776 15.7138 16.5038 15.6831 16.4077 15.643C15.7909 15.3862 14.2539 14.7462 12.7328 14.4673C11.8493 14.3053 11.0351 14.2789 10.4349 14.4776C10.1427 14.5744 9.91235 14.7209 9.74339 14.9225ZM16.766 15.9305C16.766 15.9305 16.7661 15.9301 16.7665 15.9296L16.766 15.9305ZM9.59921 15.9111C9.59928 15.9111 9.59919 15.9126 9.59871 15.9159C9.59889 15.9128 9.59913 15.9112 9.59921 15.9111ZM9.48181 16.1904C9.2949 16.1726 9.09565 16.1657 8.98635 16.1657C8.85753 16.1657 8.63295 16.1939 8.41614 16.228C8.42874 16.2614 8.44405 16.2929 8.4625 16.3217C8.51716 16.407 8.63498 16.5281 8.98635 16.5281C9.16188 16.5281 9.31803 16.4245 9.44621 16.244C9.45882 16.2262 9.47069 16.2083 9.48181 16.1904ZM7.5481 16.1323C7.17444 15.9367 6.68955 15.8372 6.12749 15.8171C5.48148 15.794 4.77441 15.8773 4.10032 16.0034C3.42828 16.1291 2.80242 16.2949 2.32032 16.4308C2.19988 16.4647 2.08872 16.4967 1.98774 16.5259L1.96142 16.5335C1.87131 16.5594 1.78882 16.5832 1.71689 16.6035C1.63876 16.6254 1.56778 16.6447 1.50931 16.6587C1.46681 16.6688 1.38378 16.6886 1.30705 16.6886C1.09405 16.6886 0.9086 16.595 0.776242 16.4893C0.640554 16.3809 0.523097 16.2308 0.455852 16.0566C0.387696 15.8801 0.363838 15.655 0.462711 15.433C0.562549 15.2088 0.757285 15.0553 0.992888 14.9638C1.03186 14.9486 1.09825 14.9205 1.18842 14.8824C1.77903 14.6324 3.38963 13.9507 4.99417 13.654C5.91619 13.4834 6.8975 13.4266 7.7105 13.6903C8.12402 13.8243 8.50265 14.0442 8.80204 14.3806C8.85932 14.4449 8.91301 14.5128 8.96303 14.5841C9.00781 14.5162 9.05609 14.4514 9.10783 14.3897C9.39423 14.048 9.76585 13.8256 10.1742 13.6904C10.9753 13.425 11.9573 13.482 12.8824 13.6516C14.509 13.9499 16.1569 14.6389 16.7429 14.884C16.8265 14.9189 16.8885 14.9448 16.9257 14.9593C17.4395 15.1588 17.6664 15.6456 17.5841 16.0747C17.5433 16.2877 17.4216 16.5 17.2064 16.6296C16.9857 16.7625 16.7229 16.775 16.4677 16.6927C16.1507 16.5904 14.9285 16.2254 13.5946 16.0194C12.9273 15.9163 12.2457 15.8553 11.6422 15.8823C11.1247 15.9055 10.7022 15.9921 10.398 16.1426C10.3876 16.1841 10.3748 16.226 10.3603 16.2673C10.3104 16.4097 10.2313 16.5707 10.1224 16.7241C9.9088 17.025 9.53227 17.3574 8.98635 17.3574C8.39262 17.3574 7.99193 17.1244 7.76427 16.7692C7.62652 16.5543 7.57031 16.3217 7.5481 16.1323ZM8.03137 15.4518C7.48416 15.1358 6.82068 15.012 6.15709 14.9883C5.42661 14.9622 4.65335 15.0562 3.94779 15.1882C3.24016 15.3206 2.58703 15.4939 2.0953 15.6326C1.97228 15.6672 1.85906 15.6998 1.75792 15.729C1.74923 15.7315 1.74065 15.734 1.73216 15.7364C1.64122 15.7627 1.56148 15.7857 1.49241 15.8051C1.41616 15.8265 1.35821 15.8421 1.31642 15.8521C1.31449 15.8526 1.31264 15.853 1.31086 15.8534C1.30599 15.8504 1.30024 15.8464 1.29383 15.8413C1.26569 15.8188 1.24419 15.7899 1.23305 15.7662C1.24526 15.7584 1.26444 15.748 1.29311 15.7369C1.34505 15.7167 1.42595 15.6826 1.53165 15.6381C2.15678 15.3747 3.64913 14.7461 5.14498 14.4695C6.02209 14.3073 6.83911 14.2795 7.45469 14.4791C7.75545 14.5767 7.99867 14.7254 8.18256 14.932C8.29016 15.0528 8.38398 15.2009 8.45703 15.3834C8.39394 15.3923 8.33307 15.4015 8.2772 15.4103C8.18454 15.425 8.09943 15.4396 8.03137 15.4518ZM9.79715 16.2406C9.79767 16.2408 9.79811 16.2409 9.79847 16.2411C9.80225 16.2425 9.80142 16.2425 9.79715 16.2406Z"></path></svg>