<svg data-v-3db7e4b9="" width="18px" height="15px" viewBox="0 0 20 15" fill="#FF00C5" xmlns="http://www.w3.org/2000/svg" class=""><path data-v-3db7e4b9="" d="M3.27344 14.0391H16.7266C18.3672 14.0391 19.1797 13.2344 19.1797 11.625V3.11719C19.1797 1.50781 18.3672 0.695312 16.7266 0.695312H3.27344C1.64062 0.695312 0.820312 1.50781 0.820312 3.11719V11.625C0.820312 13.2344 1.64062 14.0391 3.27344 14.0391ZM3.28906 1.95312H9.52344V4.63281C9.01562 3.63281 8.13281 3.01562 7.14844 3.01562C6.03125 3.01562 5.1875 3.85156 5.1875 4.99219C5.1875 5.97656 5.88281 6.78906 6.86719 7.23438H2.07812V3.1875C2.07812 2.375 2.50781 1.95312 3.28906 1.95312ZM13.125 7.23438C14.1172 6.78906 14.8047 5.97656 14.8047 4.99219C14.8047 3.85156 13.9688 3.01562 12.8438 3.01562C11.8672 3.01562 10.9844 3.63281 10.4688 4.63281V1.95312H16.7109C17.4766 1.95312 17.9219 2.375 17.9219 3.1875V7.23438H13.125ZM9.14844 7.11719C7.60938 7.11719 6.28906 6.0625 6.28906 5.07812C6.28906 4.48438 6.64844 4.125 7.21094 4.125C8.36719 4.125 9.38281 5.41406 9.38281 6.89844V7.11719H9.14844ZM10.8438 7.11719H10.6094V6.89844C10.6094 5.41406 11.625 4.125 12.7812 4.125C13.3516 4.125 13.7031 4.48438 13.7031 5.07812C13.7031 6.0625 12.3906 7.11719 10.8438 7.11719ZM16.7109 12.7812H10.4688V8.64062H10.5312C11.0469 10.25 12.9766 11.6484 14.1797 11.8359C14.625 11.8984 14.8984 11.5781 14.8984 11.2344C14.8984 10.8594 14.6719 10.6094 14.2656 10.5703C13.1875 10.4531 11.6797 9.04688 11.2266 8.09375H17.9219V11.5547C17.9219 12.3672 17.4766 12.7812 16.7109 12.7812ZM3.28906 12.7812C2.50781 12.7812 2.07812 12.3672 2.07812 11.5547V8.09375H8.77344C8.3125 9.04688 6.8125 10.4531 5.72656 10.5703C5.32812 10.6094 5.10156 10.8594 5.10156 11.2344C5.10156 11.5781 5.375 11.8984 5.82031 11.8359C7.02344 11.6484 8.95312 10.25 9.46875 8.64062H9.52344V12.7812H3.28906Z"></path></svg>