<svg data-v-8199beb2="" width="21" height="20" viewBox="0 0 21 20" fill="none" xmlns="http://www.w3.org/2000/svg" class=""><circle data-v-8199beb2="" cx="10.875" cy="10" r="10" transform="rotate(-90 10.875 10)" fill="#FCCE0B"></circle><path data-v-8199beb2="" d="M5.41558 12.8465C4.78622 12.8465 4.27637 12.3367 4.27637 11.7077C4.27637 11.0788 4.78622 10.5685 5.41558 10.5685C6.04495 10.5685 6.5548 11.0784 6.5548 11.7077C6.5548 12.3371 6.04495 12.8465 5.41558 12.8465ZM5.41558 9.42931C4.78622 9.42931 4.27637 8.91946 4.27637 8.29009C4.27637 7.66072 4.78622 7.15087 5.41558 7.15087C6.04495 7.15087 6.5548 7.66072 6.5548 8.29009C6.5548 8.91946 6.04495 9.42931 5.41558 9.42931ZM17.4744 12.9199L13.9364 11.1987L7.69402 14.1154V11.7607L11.5062 10.0142L7.69402 8.16125V5.88281L17.4744 10.6423V12.9203V12.9199Z" fill="black"></path></svg>