<svg width="18px" height="15px" viewBox="0 0 28 21" xmlns="http://www.w3.org/2000/svg" class="IconPaperBook icon" fill="#ffcce5">
  <!-- Контури темно-рожеві, заповнення світло-рожеве -->
  <path d="M3.13 11.92C2.54 12.6 2.22 13.18 2.05 13.89C1.9 14.5 6.17 16.35 8.21 17.12C8.67 17.29 9.03 17.81 9.41 18.13C9.86 18.51 10.62 18.76 11.33 18.48C11.63 18.36 11.96 18.28 12.27 18.36C13.93 18.84 19.22 20.3 19.82 19.94C20.53 19.53 26.3 12.88 27.12 9.97" stroke="#c2185b" stroke-width="1.3" fill="#ffcce5"></path>
  <path d="M10.78 16.53C9.84 16.53 1.89 11.84 1.88 11.08C1.87 10.31 10.3 1.78 11.58 1.74C12.86 1.71 18.32 5.81 18.99 7.36" stroke="#c2185b" stroke-width="1.3" fill="#ffcce5"></path>
  <path d="M10.6 16.55C14.9 16.31 18 18.34 18.73 18.09C19.45 17.84 26.89 8.75 26.49 7.53C26.09 6.31 20.41 7.28 18.94 7.28" stroke="#c2185b" stroke-width="1.3" fill="#ffcce5"></path>
  <path d="M9.58 5.15C13.08 6.46 11.56 8.5 14.48 9.67" stroke="#c2185b" stroke-width="1.3" stroke-linecap="round" fill="none"></path>
  <path d="M7.46 7.92C9.72 8.41 9.05 10.7 11.7 11.41" stroke="#c2185b" stroke-width="1.3" stroke-linecap="round" fill="none"></path>
  <path d="M18.04 10.45C20.11 11.17 20.72 9.72 22.94 9.72" stroke="#c2185b" stroke-width="1.3" stroke-linecap="round" fill="none"></path>
  <path d="M17.51 12.67C19.25 12.15 19.2 12.77 20.31 12.7" stroke="#c2185b" stroke-width="1.3" stroke-linecap="round" fill="none"></path>
  <path d="M18.9 7.2C16.78 9.28 12.43 13.65 10.64 16.55" stroke="#c2185b" stroke-width="1.3" stroke-linecap="round" fill="none"></path>
</svg>
