<svg width="28" height="21" viewBox="0 0 28 21" fill="none" xmlns="http://www.w3.org/2000/svg" data-v-84357b10="" class=""><path d="M3.13363 11.9178C2.54273 12.5995 2.22227 13.1783 2.05058 13.8876C1.90349 14.4953 6.17063 16.346 8.20998 17.1169C8.67113 17.2912 9.02902 17.8087 9.40618 18.1262C9.85634 18.5052 10.6208 18.7595 11.3273 18.4815C11.6291 18.3628 11.9573 18.2764 12.2694 18.3649C13.9302 18.8359 19.2237 20.2956 19.8233 19.9446C20.5264 19.533 26.3001 12.8849 27.1197 9.96699C27.1413 9.89007 27.1544 9.81185 27.1285 9.73624C27.0027 9.36827 26.3325 8.95602 25.7809 8.63428" stroke="currentColor" stroke-width="1.3" data-v-84357b10=""></path><path d="M10.7808 16.5277C9.83711 16.5277 1.89018 11.8412 1.87852 11.0762C1.86686 10.3111 10.295 1.7807 11.5779 1.74356C12.8608 1.70643 18.3194 5.80687 18.9908 7.35803" stroke="currentColor" stroke-width="1.3" data-v-84357b10=""></path><path d="M10.5955 16.5479C14.9042 16.3086 18.0045 18.3385 18.7277 18.0888C19.451 17.8391 26.8935 8.75172 26.4914 7.53297C26.0892 6.31423 20.4145 7.27581 18.9401 7.27562" stroke="currentColor" stroke-width="1.3" data-v-84357b10=""></path><path d="M9.58228 5.14795C13.0803 6.4583 11.558 8.49778 14.4767 9.66522" stroke="currentColor" stroke-width="1.3" stroke-linecap="round" data-v-84357b10=""></path><path d="M7.46436 7.92139C9.71614 8.4089 9.05386 10.7042 11.703 11.4092" stroke="currentColor" stroke-width="1.3" stroke-linecap="round" data-v-84357b10=""></path><path d="M18.0381 10.4504C20.1108 11.1742 20.7171 9.72314 22.9373 9.72314" stroke="currentColor" stroke-width="1.3" stroke-linecap="round" data-v-84357b10=""></path><path d="M17.5086 12.6701C19.2461 12.1495 19.201 12.7676 20.3096 12.6986" stroke="currentColor" stroke-width="1.3" stroke-linecap="round" data-v-84357b10=""></path><path d="M18.9049 7.19629C16.7833 9.28444 12.4328 13.654 10.6406 16.5458" stroke="currentColor" stroke-width="1.3" stroke-linecap="round" data-v-84357b10=""></path></svg>