<svg width="18" height="15" viewBox="0 0 18 15" fill="none" xmlns="http://www.w3.org/2000/svg" class=""><path d="M17 0.5H1C0.447715 0.5 0 0.947715 0 1.5C0 2.05228 0.447715 2.5 1 2.5H17C17.5523 2.5 18 2.05228 18 1.5C18 0.947715 17.5523 0.5 17 0.5Z" fill="#626B77"></path><path d="M17 6.5H1C0.447715 6.5 0 6.94772 0 7.5C0 8.05228 0.447715 8.5 1 8.5H17C17.5523 8.5 18 8.05228 18 7.5C18 6.94772 17.5523 6.5 17 6.5Z" fill="#626B77"></path><path d="M17 12.5H1C0.447715 12.5 0 12.9477 0 13.5C0 14.0523 0.447715 14.5 1 14.5H17C17.5523 14.5 18 14.0523 18 13.5C18 12.9477 17.5523 12.5 17 12.5Z" fill="#626B77"></path></svg>