<svg data-v-10cb8e2e="" width="14" height="15" viewBox="0 0 14 15" fill="none" xmlns="http://www.w3.org/2000/svg" class="icon-review"><path data-v-10cb8e2e="" d="M4.66602 8.80876H9.33268M4.66602 5.89209H6.99935" stroke="#626B77" stroke-width="0.875" stroke-linecap="round" stroke-linejoin="round"></path><path data-v-10cb8e2e="" d="M1.84943 11.3337C2.20725 11.6915 2.73009 11.9142 3.42055 12.0018C3.49192 12.0108 3.54004 12.0803 3.52276 12.1501C3.39274 12.6755 3.34638 13.1457 3.6835 13.3967C4.18078 13.7671 4.42527 13.3826 5.33677 12.9381C5.97647 12.6261 6.6238 12.2684 7.32287 12.1075C7.57866 12.0492 7.83906 12.0244 8.16602 12.0171C10.3659 12.0171 11.4659 12.0171 12.1492 11.3337C12.8327 10.6503 12.8327 9.55029 12.8327 7.35042V7.05876C12.8327 4.85887 12.8327 3.75893 12.1492 3.07551C11.4659 2.39209 10.3659 2.39209 8.16602 2.39209H5.83268C3.63279 2.39209 2.53285 2.39209 1.84943 3.07551C1.16602 3.75893 1.16602 4.85887 1.16602 7.05876V7.35042C1.16602 9.55029 1.16602 10.6503 1.84943 11.3337Z" stroke="#626B77" stroke-width="0.875" stroke-linecap="round"></path></svg>