<svg width="13" height="13" viewBox="0 0 13 13" fill="#5B636F" xmlns="http://www.w3.org/2000/svg" class=""><path d="M9.79883 4.11523C9.83399 1.90039 8.03516 0.218749 5.2168 0.195312L4.38477 0.189452C3.59961 0.183593 3.01953 0.242187 2.69141 0.330077C2.2168 0.453124 1.75391 0.740233 1.75391 1.31445C1.75391 1.54883 1.8125 1.71289 1.89453 1.84766C1.94141 1.92383 1.93555 1.98828 1.85938 2.01758C1.48438 2.16992 1.16797 2.52148 1.16797 3.00781C1.16797 3.27734 1.25 3.52344 1.37891 3.69336C1.44922 3.78125 1.4375 3.85742 1.33203 3.92773C1.05664 4.08594 0.869141 4.42578 0.869141 4.82422C0.869141 5.09961 0.957032 5.4043 1.12109 5.55078C1.21484 5.63867 1.19727 5.69726 1.09766 5.78516C0.904297 5.94336 0.78711 6.22461 0.78711 6.56445C0.78711 7.15039 1.24414 7.625 1.8418 7.625L3.98047 7.625C4.52539 7.625 4.88281 7.90625 4.88281 8.35156C4.88281 9.17187 3.86914 10.6602 3.86914 11.7324C3.86914 12.2949 4.23242 12.6289 4.70703 12.6289C5.14063 12.6289 5.35742 12.3301 5.5918 11.873C6.48828 10.1152 7.69531 8.69141 8.61523 7.47266C9.39453 6.43555 9.77539 5.55078 9.79883 4.11523ZM12.752 4.07422C12.752 2.27539 11.627 0.769531 10.127 0.769531L9.05469 0.769531C10.1445 1.56055 10.6367 2.76172 10.6133 4.13281C10.5898 5.65625 10.0039 6.74023 9.4707 7.40234L10.3496 7.40234C11.709 7.40234 12.752 5.9375 12.752 4.07422Z"></path></svg>