<svg data-v-3db7e4b9="" width="18px" height="15px" viewBox="0 0 14 14" fill="#FF00C5" xmlns="http://www.w3.org/2000/svg" class=""><path data-v-3db7e4b9="" d="M5.47656 13.2451C5.86475 13.2451 6.15771 13.084 6.37012 12.769L13.2549 2.03174C13.4087 1.79736 13.4673 1.59229 13.4673 1.39453C13.4673 0.88916 13.1157 0.537598 12.603 0.537598C12.2441 0.537598 12.0317 0.662109 11.812 1.00635L5.44727 11.1138L2.16602 6.90234C1.95361 6.6167 1.73389 6.49951 1.41162 6.49951C0.898926 6.49951 0.525391 6.86572 0.525391 7.37109C0.525391 7.59082 0.605957 7.80322 0.789062 8.03027L4.58301 12.7764C4.83936 13.0913 5.11035 13.2451 5.47656 13.2451Z"></path></svg>