<svg data-v-174c3cfc="" width="18px" height="15px" viewBox="0 0 14 4" xmlns="http://www.w3.org/2000/svg" fill="#FF00C5" class=""><path data-v-174c3cfc="" d="M3.34961 2.07129C3.34961 1.26465 2.70703 0.628906 1.88672 0.628906C1.09375 0.628906 0.444336 1.27148 0.444336 2.07129C0.444336 2.86426 1.09375 3.51367 1.88672 3.51367C2.69336 3.51367 3.34961 2.86426 3.34961 2.07129ZM8.43555 2.07129C8.43555 1.26465 7.80664 0.628906 7 0.628906C6.2002 0.628906 5.55762 1.27148 5.55762 2.07129C5.55762 2.86426 6.2002 3.51367 7 3.51367C7.78613 3.51367 8.43555 2.86426 8.43555 2.07129ZM13.5557 2.07129C13.5557 1.26465 12.9131 0.628906 12.1064 0.628906C11.2998 0.628906 10.6504 1.27148 10.6504 2.07129C10.6504 2.86426 11.2998 3.51367 12.1064 3.51367C12.8994 3.51367 13.5557 2.86426 13.5557 2.07129Z"></path></svg>