<svg data-v-05593ed4="" data-v-6fddf35b="" xmlns="http://www.w3.org/2000/svg" width="32" height="32" viewBox="0 0 32 32" fill="none" class="category-card__sale-label_item"><path data-v-05593ed4="" d="M31.9962 15.9938C31.9962 24.9542 31.553 27.3578 29.4568 29.457C27.3703 31.5443 24.9554 31.9972 15.9981 31.9972C7.04079 31.9972 4.62598 31.5443 2.53938 29.4666C0.443195 27.3578 0 24.9661 0 16.0034C0 7.04073 0.452778 4.6395 2.53938 2.54023C4.62598 0.452926 7.04079 0 15.9981 0C24.9554 0 27.3582 0.452926 29.4568 2.53064C31.553 4.6395 31.9962 7.03114 31.9962 15.9938Z" fill="white"></path> <path data-v-05593ed4="" fill-rule="evenodd" clip-rule="evenodd" d="M29.4528 2.54161C26.9056 1.72091e-07 23.012 0 15.9972 0C15.4908 0 15.0056 2.89647e-07 14.5312 0.00122735C14.5336 0.0460151 14.538 0.0940146 14.538 0.137611C14.5388 1.62239 14.5356 3.10721 14.5408 4.59199C14.542 4.92839 14.4892 5.21238 14.2224 5.34598C13.9652 5.47479 13.7856 5.3008 13.6152 5.07758C13.1332 4.44557 12.6468 3.81919 12.1404 3.16239C11.66 3.7852 11.2036 4.37798 10.7464 4.97C10.676 5.0612 10.614 5.1952 10.5288 5.2292C10.3688 5.29358 10.166 5.3824 10.0348 5.30639C9.90322 5.22999 9.75759 4.96639 9.75521 4.78157C9.73478 3.23641 9.7416 1.6884 9.7424 0.109606C6.44441 0.310808 4.20479 0.886011 2.54721 2.5472C5.16274e-07 5.08877 0 8.98797 0 15.9971C0 23.0063 5.16274e-07 26.9055 2.54721 29.4528C5.08882 32 8.988 32 15.9972 32C23.0064 32 26.9056 32 29.4528 29.4528C32 26.9055 32 23.0119 32 15.9971C32 8.98238 32 5.08877 29.4528 2.54161ZM17.9988 14.814V16.9223H12.3764C12.684 19.1627 14.1336 20.5683 16.3296 20.5683C17.9988 20.5683 19.2288 19.6459 19.8436 18.1083L22.2596 18.9427C21.4688 21.4027 19.1848 22.8083 16.3296 22.8083C12.4204 22.8083 9.74081 20.0411 9.74081 15.9999C9.74081 11.9588 12.4204 9.19156 16.3296 9.19156C19.1848 9.19156 21.4688 10.5972 22.2596 13.0572L19.8436 13.8915C19.2288 12.3539 17.9988 11.4316 16.3296 11.4316C14.2212 11.4316 12.8156 12.7491 12.4204 14.814H17.9988Z" fill="#010101"></path></svg>