<svg data-v-05593ed4="" data-v-92552356="" xmlns="http://www.w3.org/2000/svg" width="32" height="32" viewBox="0 0 32 32" fill="none" class="product-payment-option-logo"><path data-v-05593ed4="" d="M31.9962 15.9938C31.9962 24.9542 31.553 27.3578 29.4568 29.457C27.3703 31.5443 24.9554 31.9972 15.9981 31.9972C7.04079 31.9972 4.62598 31.5443 2.53938 29.4666C0.443195 27.3578 0 24.9661 0 16.0034C0 7.04073 0.452778 4.6395 2.53938 2.54023C4.62598 0.452926 7.04079 0 15.9981 0C24.9554 0 27.3582 0.452926 29.4568 2.53064C31.553 4.6395 31.9962 7.03114 31.9962 15.9938Z" fill="white"></path> <path data-v-05593ed4="" fill-rule="evenodd" clip-rule="evenodd" d="M29.4528 2.54161C26.9056 1.72091e-07 23.012 0 15.9972 0C15.4908 0 15.0056 2.89647e-07 14.5312 0.00122735C14.5336 0.0460151 14.538 0.0940146 14.538 0.137611C14.5388 1.62239 14.5356 3.10721 14.5408 4.59199C14.542 4.92839 14.4892 5.21238 14.2224 5.34598C13.9652 5.47479 13.7856 5.3008 13.6152 5.07758C13.1332 4.44557 12.6468 3.81919 12.1404 3.16239C11.66 3.7852 11.2036 4.37798 10.7464 4.97C10.676 5.0612 10.614 5.1952 10.5288 5.2292C10.3688 5.29358 10.166 5.3824 10.0348 5.30639C9.90322 5.22999 9.75759 4.96639 9.75521 4.78157C9.73478 3.23641 9.7416 1.6884 9.7424 0.109606C6.44441 0.310808 4.20479 0.886011 2.54721 2.5472C5.16274e-07 5.08877 0 8.98797 0 15.9971C0 23.0063 5.16274e-07 26.9055 2.54721 29.4528C5.08882 32 8.988 32 15.9972 32C23.0064 32 26.9056 32 29.4528 29.4528C32 26.9055 32 23.0119 32 15.9971C32 8.98238 32 5.08877 29.4528 2.54161ZM17.9988 14.814V16.9223H12.3764C12.684 19.1627 14.1336 20.5683 16.3296 20.5683C17.9988 20.5683 19.2288 19.6459 19.8436 18.1083L22.2596 18.9427C21.4688 21.4027 19.1848 22.8083 16.3296 22.8083C12.4204 22.8083 9.74081 20.0411 9.74081 15.9999C9.74081 11.9588 12.4204 9.19156 16.3296 9.19156C19.1848 9.19156 21.4688 10.5972 22.2596 13.0572L19.8436 13.8915C19.2288 12.3539 17.9988 11.4316 16.3296 11.4316C14.2212 11.4316 12.8156 12.7491 12.4204 14.814H17.9988Z" fill="#010101"></path><svg data-v-92552356="" width="3011" height="3010" viewBox="0 0 3011 3010" fill="none" xmlns="http://www.w3.org/2000/svg" class="product-payment-option-logo"><path data-v-92552356="" d="M3010.64 1504.42C3010.64 2347.25 2968.94 2573.34 2771.7 2770.8C2575.37 2967.14 2348.15 3009.74 1505.32 3009.74C662.494 3009.74 435.276 2967.14 238.94 2771.7C41.7019 2573.34 0 2348.37 0 1505.32C0 662.269 42.6036 436.403 238.94 238.94C435.276 42.6034 662.494 0 1505.32 0C2348.15 0 2574.24 42.6034 2771.7 238.038C2968.94 436.403 3010.64 661.367 3010.64 1504.42Z" fill="#568AFA"></path><path data-v-92552356="" d="M2771.7 238.038C2574.24 42.6034 2347.25 0 1505.32 0C663.396 0 435.276 42.6034 238.94 238.94C42.6036 436.403 0 662.494 0 1505.32C0 2348.15 41.7019 2573.34 238.94 2771.7C435.276 2967.14 662.494 3009.74 1505.32 3009.74C2348.15 3009.74 2575.37 2967.14 2771.7 2770.8C2968.94 2573.34 3010.64 2347.25 3010.64 1504.42C3010.64 661.593 2968.94 436.403 2771.7 238.038ZM2736.99 2736.99C2552.6 2922.5 2336.43 2962.18 1505.32 2962.18C674.216 2962.18 458.043 2921.38 273.654 2736.09C88.1372 2552.6 47.5626 2340.26 47.5626 1505.32C47.5626 670.384 88.1372 459.17 273.654 273.654C457.141 88.3627 673.314 47.5625 1505.32 47.5625C2337.33 47.5625 2552.6 88.3627 2736.99 273.654C2922.28 458.269 2963.08 670.384 2963.08 1505.32C2963.08 2340.26 2922.28 2552.6 2736.99 2736.99Z" fill="white"></path><path data-v-92552356="" d="M905.402 1504.85L688.328 1128.63L648.204 1059.2L632.2 1031.7H563.899L475.762 1158.83L618.224 1405.21H319.775L269.732 1504.85L319.775 1604.25H618.224L475.762 1850.86L563.899 1977.99H632.2L648.204 1950.49L688.328 1881.06L905.402 1504.85Z" fill="white"></path><path data-v-92552356="" d="M1183.5 2036.89H749.125H668.876H637.093L602.83 2096.18L668.876 2235.94H953.576L804.576 2494.26L865.664 2587.58L976.793 2593.67L1126.02 2335.34L1268.48 2581.95L1422.44 2569.32L1456.7 2510.04L1440.7 2482.54L1400.57 2413.11L1183.5 2036.89Z" fill="white"></path><path data-v-92552356="" d="M1797.79 2036.89L1580.49 2413.11L1540.59 2482.54L1524.59 2510.04L1558.85 2569.32L1712.81 2581.95L1855.27 2335.34L2004.5 2593.67L2115.63 2587.58L2176.71 2494.26L2027.49 2235.94H2312.41L2378.46 2096.18L2344.2 2036.89H2312.41H2232.17H1797.79Z" fill="white"></path><path data-v-92552356="" d="M2740.68 1504.85L2523.6 1128.63L2483.48 1059.2L2467.48 1031.7H2398.95L2311.04 1158.83L2453.5 1405.21H2003.57V1604.25H2453.5L2311.04 1850.86L2398.95 1977.99H2467.48L2483.48 1950.49L2523.6 1881.06L2740.68 1504.85Z" fill="white"></path><path data-v-92552356="" d="M1797.79 972.879H2232.17H2312.41H2344.2L2378.46 913.595L2312.41 773.838H2027.49L2176.71 515.512L2115.63 422.19L2004.5 415.879L1855.27 674.43L1712.81 427.826L1558.85 440.449L1524.59 499.733L1540.59 527.234L1580.49 596.662L1797.79 972.879Z" fill="white"></path><path data-v-92552356="" d="M1183.5 972.879L1400.57 596.662L1440.7 527.234L1456.7 499.733L1422.44 440.449L1268.48 427.826L1126.02 674.43L976.793 415.879L865.664 422.19L804.576 515.512L953.576 773.838H668.876L602.83 913.595L637.093 972.879H668.876H749.125H1183.5Z" fill="white"></path></svg></svg>