<svg width="16px" height="15px" viewBox="0 0 17 17" fill="none" xmlns="http://www.w3.org/2000/svg" class="ui-display-book-type__icon"><path d="M6.06055 6.06628C7.88013 5.28299 8.50915 6.42884 9.99787 5.9217" stroke="currentColor" stroke-width="0.866667" stroke-linecap="round"></path><path d="M6.06641 8.36191C7.51104 7.24077 9.59507 8.79677 11.6266 8.09357" stroke="currentColor" stroke-width="0.866667" stroke-linecap="round"></path><path d="M3.83398 13.1074H14.0231" stroke="currentColor" stroke-width="0.866667"></path><path d="M12.69 0.488281H5.02305C4.52599 0.488281 4.12305 0.891225 4.12305 1.38828V14.7216C4.12305 15.2187 4.52599 15.6216 5.02305 15.6216H12.69C13.187 15.6216 13.59 15.2187 13.59 14.7216V1.38828C13.59 0.891225 13.187 0.488281 12.69 0.488281Z" stroke="currentColor" stroke-width="0.866667"></path><path d="M3.79297 2.87695H13.9215" stroke="currentColor" stroke-width="0.866667"></path><path d="M7.89648 1.69434H9.81706" stroke="currentColor" stroke-width="0.866667" stroke-linecap="round"></path><path d="M8.83203 14.3164H8.85814" stroke="currentColor" stroke-width="0.866667" stroke-linecap="round"></path></svg>