<svg data-v-1c830432="" width="134" height="134" viewBox="0 0 134 134" fill="none" xmlns="http://www.w3.org/2000/svg" class="product-payment-option-logo"><g clip-path="url(#nepgj59flfo_6)"><path d="M133.56 66.74C133.56 104.13 131.71 114.16 122.96 122.92C114.24 131.63 104.17 133.52 66.78 133.52C29.39 133.52 19.31 131.63 10.6 122.96C1.84 114.16 0 104.17 0 66.78C0 29.39 1.89 19.36 10.6 10.6C19.31 1.89 29.38 0 66.78 0C104.18 0 114.2 1.89 122.96 10.56C131.71 19.36 133.56 29.34 133.56 66.74Z" fill="black"></path> <path d="M122.96 10.56C114.2 1.89 104.13 0 66.78 0C29.43 0 19.31 1.89 10.6 10.6C1.89 19.36 0 29.39 0 66.78C0 104.17 1.84 114.16 10.6 122.96C19.31 131.63 29.38 133.52 66.78 133.52C104.18 133.52 114.24 131.63 122.96 122.92C131.71 114.16 133.56 104.13 133.56 66.74C133.56 29.35 131.71 19.36 122.96 10.56ZM121.42 121.42C113.23 129.65 103.64 131.41 66.78 131.41C29.92 131.41 20.32 129.6 12.14 121.38C3.91 113.24 2.11 103.82 2.11 66.78C2.11 29.74 3.91 20.37 12.14 12.14C20.28 3.92 29.87 2.11 66.78 2.11C103.69 2.11 113.23 3.92 121.42 12.14C129.64 20.32 131.45 29.74 131.45 66.78C131.45 103.82 129.64 113.24 121.42 121.42Z" fill="white"></path> <path d="M66.01 83.3798C59.13 83.3798 54.58 79.0998 53.55 71.1798H71.21V62.3498H53.81C55.1 55.3398 59.65 51.4398 66.01 51.4398C71.59 51.4398 75.62 54.5598 77.57 59.8798L87.7 56.2498C84.71 47.1598 76.79 42.0898 66.14 42.0898C51.6 42.0898 41.99 52.2198 41.99 67.4098C41.99 82.5998 51.47 92.7298 66.14 92.7298C76.79 92.7298 84.71 87.4098 87.7 78.5798L77.57 74.9398C75.62 80.2698 71.59 83.3798 66.01 83.3798Z" fill="white"></path> <path d="M40.17 66.76L30.54 50.07L28.76 46.99L28.05 45.76H25.01L21.11 51.41L27.43 62.34H14.19L11.96 66.76L14.19 71.17H27.43L21.11 82.11L25.01 87.75H28.05L28.76 86.53L30.54 83.45L40.17 66.76Z" fill="url(#nepgj59flfo_1)"></path> <path d="M52.51 90.3599H52.5H33.24H29.68H28.26L26.75 92.9899L29.68 99.1899H42.31L35.69 110.65L38.4 114.79L43.34 115.06L49.96 103.6L56.27 114.54L63.11 113.98L64.63 111.35L63.92 110.13L62.14 107.05L52.51 90.3599Z" fill="url(#nepgj59flfo_2)"></path> <path d="M79.76 90.3599L70.12 107.05L68.34 110.13L67.64 111.35L69.15 113.98L75.99 114.54L82.31 103.6L88.92 115.06L93.86 114.79L96.57 110.65L89.95 99.1899H102.58L105.52 92.9899L104 90.3599H102.58H99.03H79.76Z" fill="url(#nepgj59flfo_3)"></path> <path d="M121.59 66.76L111.95 50.07L110.17 46.99L109.47 45.76H106.43L102.53 51.41L108.84 62.34H88.88V71.17H108.84L102.53 82.11L106.43 87.75H109.47L110.17 86.53L111.95 83.45L121.59 66.76Z" fill="white"></path> <path d="M79.76 43.16H99.03H102.58H104L105.52 40.5299L102.58 34.33H89.95L96.57 22.87L93.86 18.7299L88.92 18.45L82.31 29.92L75.99 18.9799L69.15 19.53L67.64 22.17L68.34 23.3899L70.12 26.4699L79.76 43.16Z" fill="url(#nepgj59flfo_4)"></path> <path d="M52.51 43.16L62.14 26.4699L63.92 23.3899L64.63 22.17L63.11 19.53L56.27 18.9799L49.96 29.92L43.34 18.45L38.4 18.7299L35.69 22.87L42.31 34.33H29.68L26.75 40.5299L28.26 43.16H29.68H33.24H52.5H52.51Z" fill="url(#nepgj59flfo_5)"></path></g> <defs><linearGradient id="nepgj59flfo_1" x1="11.96" y1="66.76" x2="40.17" y2="66.76" gradientUnits="userSpaceOnUse"><stop stop-color="#C3AAB2"></stop> <stop offset="0.37" stop-color="#99EECC"></stop> <stop offset="0.68" stop-color="#80C0C8"></stop> <stop offset="1" stop-color="#4B8BFA"></stop></linearGradient> <linearGradient id="nepgj59flfo_2" x1="26.75" y1="102.71" x2="64.63" y2="102.71" gradientUnits="userSpaceOnUse"><stop stop-color="#C3AAB2"></stop> <stop offset="0.37" stop-color="#99EECC"></stop> <stop offset="0.68" stop-color="#80C0C8"></stop> <stop offset="1" stop-color="#4B8BFA"></stop></linearGradient> <linearGradient id="nepgj59flfo_3" x1="67.64" y1="102.71" x2="105.52" y2="102.71" gradientUnits="userSpaceOnUse"><stop stop-color="#C3AAB2"></stop> <stop offset="0.37" stop-color="#99EECC"></stop> <stop offset="0.68" stop-color="#80C0C8"></stop> <stop offset="1" stop-color="#4B8BFA"></stop></linearGradient> <linearGradient id="nepgj59flfo_4" x1="67.64" y1="30.81" x2="105.52" y2="30.81" gradientUnits="userSpaceOnUse"><stop stop-color="#C3AAB2"></stop> <stop offset="0.37" stop-color="#99EECC"></stop> <stop offset="0.68" stop-color="#80C0C8"></stop> <stop offset="1" stop-color="#4B8BFA"></stop></linearGradient> <linearGradient id="nepgj59flfo_5" x1="26.75" y1="30.81" x2="64.63" y2="30.81" gradientUnits="userSpaceOnUse"><stop stop-color="#C3AAB2"></stop> <stop offset="0.37" stop-color="#99EECC"></stop> <stop offset="0.68" stop-color="#80C0C8"></stop> <stop offset="1" stop-color="#4B8BFA"></stop></linearGradient> <clipPath id="nepgj59flfo_6"><rect width="133.56" height="133.52" fill="white"></rect></clipPath></defs></svg>