<svg data-v-3d8dafc1="" width="3011" height="3010" viewBox="0 0 3011 3010" fill="none" xmlns="http://www.w3.org/2000/svg" class="product-payment-option-logo"><path data-v-3d8dafc1="" d="M3010.64 1504.42C3010.64 2347.25 2968.94 2573.34 2771.7 2770.8C2575.37 2967.14 2348.15 3009.74 1505.32 3009.74C662.494 3009.74 435.276 2967.14 238.94 2771.7C41.7019 2573.34 0 2348.37 0 1505.32C0 662.269 42.6036 436.403 238.94 238.94C435.276 42.6034 662.494 0 1505.32 0C2348.15 0 2574.24 42.6034 2771.7 238.038C2968.94 436.403 3010.64 661.367 3010.64 1504.42Z" fill="#568AFA"></path><path data-v-3d8dafc1="" d="M2771.7 238.038C2574.24 42.6034 2347.25 0 1505.32 0C663.396 0 435.276 42.6034 238.94 238.94C42.6036 436.403 0 662.494 0 1505.32C0 2348.15 41.7019 2573.34 238.94 2771.7C435.276 2967.14 662.494 3009.74 1505.32 3009.74C2348.15 3009.74 2575.37 2967.14 2771.7 2770.8C2968.94 2573.34 3010.64 2347.25 3010.64 1504.42C3010.64 661.593 2968.94 436.403 2771.7 238.038ZM2736.99 2736.99C2552.6 2922.5 2336.43 2962.18 1505.32 2962.18C674.216 2962.18 458.043 2921.38 273.654 2736.09C88.1372 2552.6 47.5626 2340.26 47.5626 1505.32C47.5626 670.384 88.1372 459.17 273.654 273.654C457.141 88.3627 673.314 47.5625 1505.32 47.5625C2337.33 47.5625 2552.6 88.3627 2736.99 273.654C2922.28 458.269 2963.08 670.384 2963.08 1505.32C2963.08 2340.26 2922.28 2552.6 2736.99 2736.99Z" fill="white"></path><path data-v-3d8dafc1="" d="M905.402 1504.85L688.328 1128.63L648.204 1059.2L632.2 1031.7H563.899L475.762 1158.83L618.224 1405.21H319.775L269.732 1504.85L319.775 1604.25H618.224L475.762 1850.86L563.899 1977.99H632.2L648.204 1950.49L688.328 1881.06L905.402 1504.85Z" fill="white"></path><path data-v-3d8dafc1="" d="M1183.5 2036.89H749.125H668.876H637.093L602.83 2096.18L668.876 2235.94H953.576L804.576 2494.26L865.664 2587.58L976.793 2593.67L1126.02 2335.34L1268.48 2581.95L1422.44 2569.32L1456.7 2510.04L1440.7 2482.54L1400.57 2413.11L1183.5 2036.89Z" fill="white"></path><path data-v-3d8dafc1="" d="M1797.79 2036.89L1580.49 2413.11L1540.59 2482.54L1524.59 2510.04L1558.85 2569.32L1712.81 2581.95L1855.27 2335.34L2004.5 2593.67L2115.63 2587.58L2176.71 2494.26L2027.49 2235.94H2312.41L2378.46 2096.18L2344.2 2036.89H2312.41H2232.17H1797.79Z" fill="white"></path><path data-v-3d8dafc1="" d="M2740.68 1504.85L2523.6 1128.63L2483.48 1059.2L2467.48 1031.7H2398.95L2311.04 1158.83L2453.5 1405.21H2003.57V1604.25H2453.5L2311.04 1850.86L2398.95 1977.99H2467.48L2483.48 1950.49L2523.6 1881.06L2740.68 1504.85Z" fill="white"></path><path data-v-3d8dafc1="" d="M1797.79 972.879H2232.17H2312.41H2344.2L2378.46 913.595L2312.41 773.838H2027.49L2176.71 515.512L2115.63 422.19L2004.5 415.879L1855.27 674.43L1712.81 427.826L1558.85 440.449L1524.59 499.733L1540.59 527.234L1580.49 596.662L1797.79 972.879Z" fill="white"></path><path data-v-3d8dafc1="" d="M1183.5 972.879L1400.57 596.662L1440.7 527.234L1456.7 499.733L1422.44 440.449L1268.48 427.826L1126.02 674.43L976.793 415.879L865.664 422.19L804.576 515.512L953.576 773.838H668.876L602.83 913.595L637.093 972.879H668.876H749.125H1183.5Z" fill="white"></path></svg>