<svg width="19" height="20" viewBox="0 0 19 20" fill="none" xmlns="http://www.w3.org/2000/svg" class=""><path d="M11.1382 11.6384C10.926 11.8661 10.67 12.0488 10.3857 12.1755C10.1013 12.3022 9.79433 12.3704 9.48307 12.3758C9.17181 12.3813 8.86263 12.3241 8.57397 12.2075C8.28532 12.0909 8.0231 11.9174 7.80297 11.6972C7.58284 11.4771 7.4093 11.2149 7.29271 10.9262C7.17612 10.6376 7.11886 10.3284 7.12435 10.0171C7.12984 9.70586 7.19797 9.3989 7.32468 9.11453C7.45138 8.83017 7.63406 8.57424 7.86182 8.36202M14.09 14.5902C12.7691 15.5971 11.1607 16.1549 9.5 16.182C4.09091 16.182 1 10.0002 1 10.0002C1.96119 8.20893 3.29433 6.64394 4.91 5.4102L14.09 14.5902ZM7.87727 4.00383C8.40917 3.87933 8.95373 3.8171 9.5 3.81838C14.9091 3.81838 18 10.0002 18 10.0002C17.5309 10.8777 16.9715 11.7039 16.3309 12.4652L7.87727 4.00383Z" stroke="#5B636F" stroke-width="1.4" stroke-linecap="round" stroke-linejoin="round"></path><path d="M1 1.5L18 18.5" stroke="#5B636F" stroke-width="1.4" stroke-linecap="round" stroke-linejoin="round"></path></svg>