<svg width="18" height="22" viewBox="0 0 18 22" fill="none" xmlns="http://www.w3.org/2000/svg" data-v-84357b10="" class=""><path d="M7.38698 10.3294C4.97083 10.3019 2.71961 10.3156 1.45794 10.2222C1.45794 10.2222 0.949424 18.6608 1.45794 19.5184C2.66464 21.536 15.4435 21.4453 16.3314 19.5184C16.73 18.6553 16.3534 10.6372 16.3369 10.2771C15.1027 10.4091 12.8322 10.3376 10.3914 10.3431L7.38698 10.3294ZM7.38698 10.3294V10.3459C7.38698 10.3459 7.38756 10.5787 7.38698 10.3294Z" stroke="#5B636F" stroke-width="1.3" stroke-miterlimit="10" data-v-84357b10=""></path><path d="M16.5383 10.2124C16.4723 10.2207 16.4063 10.2289 16.3321 10.2344C16.3321 10.2289 1.45866 10.2234 1.45866 10.2234C0.482852 10.1492 0.458114 6.30371 1.4724 6.30371H16.5493C17.5443 6.30371 17.5086 10.0915 16.5383 10.2124Z" stroke="#5B636F" stroke-width="1.3" stroke-miterlimit="10" data-v-84357b10=""></path><path d="M10.4088 10.4333V10.5031C10.4061 13.0561 10.3923 20.7124 10.3923 20.7124H7.38794C7.38794 20.7124 7.39893 13.0051 7.40443 10.436V10.4199C8.39673 10.4333 9.41651 10.4387 10.4088 10.4333Z" stroke="#5B636F" stroke-width="1.3" stroke-miterlimit="10" data-v-84357b10=""></path><path d="M10.2077 4.38965H7.58813V6.30278H10.2077V4.38965Z" stroke="#5B636F" stroke-width="1.3" stroke-miterlimit="10" data-v-84357b10=""></path><path d="M1.9729 1.71857C3.9465 -0.911981 7.9063 4.51152 7.9063 4.51152" stroke="#5B636F" stroke-width="1.3" stroke-miterlimit="10" data-v-84357b10=""></path><path d="M7.5012 6.30244C7.5012 6.30244 -0.646072 5.20844 1.98447 1.70654" stroke="#5B636F" stroke-width="1.3" stroke-miterlimit="10" data-v-84357b10=""></path><path d="M15.8342 1.71857C13.8606 -0.911981 9.90083 4.51152 9.90083 4.51152" stroke="#5B636F" stroke-width="1.3" stroke-miterlimit="10" data-v-84357b10=""></path><path d="M10.3059 6.30244C10.3059 6.30244 18.4532 5.20844 15.8227 1.70654" stroke="#5B636F" stroke-width="1.3" stroke-miterlimit="10" data-v-84357b10=""></path></svg>