<svg width="15" height="11" viewBox="0 0 15 11" fill="none" xmlns="http://www.w3.org/2000/svg" class="svg-icon-truck ui-shipment-status__icon"><path d="M12.9545 2.74976H10.9091V-0.000244141H1.36364C0.613636 -0.000244141 0 0.618506 0 1.37476V8.93726H1.36364C1.36364 10.0785 2.27727 10.9998 3.40909 10.9998C4.54091 10.9998 5.45455 10.0785 5.45455 8.93726H9.54545C9.54545 10.0785 10.4591 10.9998 11.5909 10.9998C12.7227 10.9998 13.6364 10.0785 13.6364 8.93726H15V5.49976L12.9545 2.74976ZM12.5 3.99976L13.7 5.49976V7.56226H10.9091V7.00765V3.99976H12.5ZM3.40909 9.62476C3.03409 9.62476 2.72727 9.31538 2.72727 8.93726C2.72727 8.55913 3.03409 8.24976 3.40909 8.24976C3.78409 8.24976 4.09091 8.55913 4.09091 8.93726C4.09091 9.31538 3.78409 9.62476 3.40909 9.62476ZM4.92273 7.56226C4.54773 7.14288 4.01591 6.87476 3.40909 6.87476C2.80227 6.87476 2.27045 7.14288 1.89545 7.56226H1.36364V1.37476H9.54545V7.56226H4.92273ZM11.5909 9.62476C11.2159 9.62476 10.9091 9.31538 10.9091 8.93726C10.9091 8.55913 11.2159 8.24976 11.5909 8.24976C11.9659 8.24976 12.2727 8.55913 12.2727 8.93726C12.2727 9.31538 11.9659 9.62476 11.5909 9.62476Z" fill=""></path> <path d="M10.9091 7.00765V7.56226H13.1407C12.7657 7.14288 12.2339 6.87476 11.6271 6.87476C11.3725 6.87476 11.1312 6.92193 10.9091 7.00765Z" fill=""></path></svg>