<svg width="13" height="13" viewBox="0 0 13 13" fill="#5B636F" xmlns="http://www.w3.org/2000/svg" class=""><path d="M3.20117 8.88477C3.16602 11.0996 4.96484 12.7812 7.7832 12.8047L8.61523 12.8105C9.40039 12.8164 9.98047 12.7578 10.3086 12.6699C10.7832 12.5469 11.2461 12.2598 11.2461 11.6855C11.2461 11.4512 11.1875 11.2871 11.1055 11.1523C11.0586 11.0762 11.0645 11.0117 11.1406 10.9824C11.5156 10.8301 11.832 10.4785 11.832 9.99219C11.832 9.72266 11.75 9.47656 11.6211 9.30664C11.5508 9.21875 11.5625 9.14258 11.668 9.07227C11.9434 8.91406 12.1309 8.57422 12.1309 8.17578C12.1309 7.90039 12.043 7.5957 11.8789 7.44922C11.7852 7.36133 11.8027 7.30273 11.9023 7.21484C12.0957 7.05664 12.2129 6.77539 12.2129 6.43555C12.2129 5.84961 11.7559 5.375 11.1582 5.375H9.01953C8.47461 5.375 8.11719 5.09375 8.11719 4.64844C8.11719 3.82812 9.13086 2.33984 9.13086 1.26758C9.13086 0.705078 8.76758 0.371094 8.29297 0.371094C7.85938 0.371094 7.64258 0.669922 7.4082 1.12695C6.51172 2.88477 5.30469 4.30859 4.38477 5.52734C3.60547 6.56445 3.22461 7.44922 3.20117 8.88477ZM0.248047 8.92578C0.248047 10.7246 1.37305 12.2305 2.87305 12.2305H3.94531C2.85547 11.4395 2.36328 10.2383 2.38672 8.86719C2.41016 7.34375 2.99609 6.25977 3.5293 5.59766H2.65039C1.29102 5.59766 0.248047 7.0625 0.248047 8.92578Z"></path></svg>