<svg width="36" height="36" viewBox="0 0 8 11" fill="white" xmlns="http://www.w3.org/2000/svg" class="locker-icon"><path d="M6.35258 4.11057V2.7187C6.36694 2.01362 6.09357 1.33172 5.59229 0.822207C5.09101 0.312695 4.40264 0.0170621 3.67781 0C2.95298 0.0170621 2.26461 0.312695 1.76333 0.822207C1.26205 1.33172 0.98868 2.01362 1.00304 2.7187V4.11057H0V9.63902C0 9.81152 0.0704514 9.97696 0.195856 10.0989C0.32126 10.2209 0.491345 10.2894 0.668693 10.2894H6.68693C6.86428 10.2894 7.03436 10.2209 7.15977 10.0989C7.28517 9.97696 7.35562 9.81152 7.35562 9.63902V4.11057H6.35258ZM4.01216 7.4374V8.33821H3.34347V7.40813C3.18069 7.32666 3.05144 7.19351 2.97717 7.03077C2.9029 6.86803 2.88808 6.68547 2.93515 6.51341C2.98223 6.34134 3.08838 6.1901 3.23599 6.08479C3.3836 5.97948 3.56379 5.92642 3.74667 5.93442C3.92955 5.94243 4.10411 6.01101 4.2414 6.12879C4.37869 6.24658 4.47044 6.40648 4.50144 6.58196C4.53244 6.75745 4.50082 6.93796 4.41182 7.09356C4.32282 7.24916 4.1818 7.37048 4.01216 7.4374ZM5.68389 4.11057H1.67173V2.7187C1.65732 2.18609 1.86022 1.66959 2.23611 1.28204C2.612 0.894493 3.13032 0.667409 3.67781 0.650407C4.2253 0.667409 4.74362 0.894493 5.11951 1.28204C5.4954 1.66959 5.69831 2.18609 5.68389 2.7187V4.11057Z"></path></svg>