<svg data-v-3db7e4b9="" width="18px" height="15px" viewBox="0 0 14 16" fill="#FF00C5" xmlns="http://www.w3.org/2000/svg" class=""><path data-v-3db7e4b9="" d="M2.12109 9.63672V13.957C2.12109 15.1465 2.92773 15.9189 4.15137 15.9189H11.8418C13.0654 15.9189 13.8721 15.1465 13.8721 13.957V2.16504C13.8721 0.982422 13.0654 0.203125 11.8418 0.203125H4.15137C2.92773 0.203125 2.12109 0.982422 2.12109 2.16504V6.49219H3.46094V2.38379C3.46094 1.85059 3.77539 1.54297 4.33594 1.54297H11.6572C12.2178 1.54297 12.5322 1.85059 12.5322 2.38379V13.7383C12.5322 14.2715 12.2178 14.5791 11.6572 14.5791H4.33594C3.77539 14.5791 3.46094 14.2715 3.46094 13.7383V9.63672H2.12109ZM0.706055 8.63184H5.2041L6.52344 8.56348L5.16992 9.75293L4.80078 10.1357C4.69824 10.2451 4.62988 10.3955 4.62988 10.5596C4.62988 10.8809 4.8623 11.1064 5.17676 11.1064C5.33398 11.1064 5.47754 11.0449 5.58691 10.9355L8.00684 8.5293C8.15039 8.37891 8.23242 8.21484 8.23242 8.05762C8.23242 7.90039 8.15039 7.72949 8.00684 7.58594L5.58691 5.17969C5.47754 5.07031 5.33398 5.00879 5.17676 5.00879C4.8623 5.00879 4.62988 5.23438 4.62988 5.55566C4.62988 5.71973 4.69824 5.87012 4.80078 5.97949L5.16992 6.3623L6.52344 7.55176L5.2041 7.4834H0.706055C0.357422 7.4834 0.131836 7.75 0.131836 8.05762C0.131836 8.36523 0.357422 8.63184 0.706055 8.63184Z"></path></svg>