<svg id="_Шар_1" xmlns="http://www.w3.org/2000/svg" version="1.1" fill="#ff00c5" width="115" height="32" viewBox="0 15 340 130" preserveAspectRatio="xMidYMid slice" itemprop="image" title=" &quot;Yakaboo – інтернет-магазин з продажу книг" data-v-0799c7b8="" class=""><defs data-v-0799c7b8=""></defs><path d="M106.2,99.3l-11.7-14.7,10.9-14.7h-11l-9,13.9v-27.8h-9.3v43.5h9.3v-13.9l9.4,13.9h11.4v-.2Z" class="st0" data-v-0799c7b8=""></path><path d="M54.3,69.2c4,0,7.4,1.5,9,4v-3.3h9.3v29.5h-9v-3.8c-1.9,2.8-5.1,4.4-9,4.4-8.5,0-14.9-5.8-14.9-15.2s6.7-15.5,14.5-15.5h.1ZM56.1,77c-3.8,0-7.1,2.7-7.1,7.7s3.4,7.4,7.1,7.4,7.4-2.7,7.4-7.4-3.1-7.7-7.4-7.7Z" class="st0" data-v-0799c7b8=""></path><path d="M117.4,69.2c4,0,7.4,1.5,9,4v-3.3h9.3v29.5h-9v-3.8c-1.9,2.8-5.1,4.4-9,4.4-8.5,0-14.9-5.8-14.9-15.2s6.7-15.5,14.6-15.5h0ZM119.3,77c-3.8,0-7.1,2.7-7.1,7.7s3.4,7.4,7.1,7.4,7.4-2.7,7.4-7.4-3.1-7.7-7.4-7.7Z" class="st0" data-v-0799c7b8=""></path><path d="M148.5,55.8v17.7c1.9-2.5,5.3-4.3,9-4.3,7.8,0,14.3,6.1,14.3,15.5s-6.3,15.2-14.5,15.2-7.1-1.5-9-4v3.4h-9v-43.5h9.3-.1ZM162.5,84.7c0-5-3.1-7.7-7.1-7.7s-7.1,2.7-7.1,7.7,3.1,7.4,7.1,7.4,7.1-2.7,7.1-7.4Z" class="st0" data-v-0799c7b8=""></path><path d="M189.9,69.2c-9.3,0-16.1,6.1-16.1,15.4s6.8,15.4,16.1,15.4,16.2-6.1,16.2-15.4-6.8-15.4-16.2-15.4ZM190,92c-4,0-7.3-2.9-7.3-7.6s3.3-7.6,7.3-7.6,7.3,3,7.3,7.6-3.3,7.6-7.3,7.6h0Z" class="st0" data-v-0799c7b8=""></path><path d="M224.2,69.2c-9.3,0-16.1,6.1-16.1,15.4s6.8,15.4,16.1,15.4,16.2-6.1,16.2-15.4-6.8-15.4-16.2-15.4ZM224.2,92c-4,0-7.3-2.9-7.3-7.6s3.3-7.6,7.3-7.6,7.3,3,7.3,7.6-3.3,7.6-7.3,7.6h0Z" class="st0" data-v-0799c7b8=""></path><path d="M13.7,109.9h9.3l19.5-40h-9.3l-7.6,15.6-7.1-15.6h-9.6l11.9,25.5-7,14.5h0Z" class="st0" data-v-0799c7b8=""></path><path d="M255.3,84.6c0,7.5,2.3,14.8,6.4,21.1,4.2,6.2,10.1,11.1,17.1,14s14.6,3.6,22,2.2,14.1-5.1,19.5-10.4c5.3-5.3,8.9-12.1,10.4-19.4,1.4-7.4.7-14.9-2.2-21.9-2.9-7-7.8-12.8-14-17-6.3-4.3-13.6-6.6-21.1-6.6s-10,1-14.5,2.9c-4.6,1.9-8.8,4.7-12.4,8.2-3.5,3.5-6.3,7.7-8.3,12.3s-2.9,9.6-2.9,14.5h0ZM266.1,77.6c0-.9.3-1.8.8-2.6.5-.8,1.2-1.4,2.1-1.7.8-.3,1.8-.5,2.7-.3s1.7.6,2.4,1.3,1.1,1.5,1.3,2.4,0,1.8-.3,2.7-1,1.6-1.7,2.1c-.8.5-1.6.8-2.6.8s-2.4-.5-3.3-1.4-1.4-2-1.4-3.3h0ZM266.1,91.5c0-.9.3-1.8.8-2.6.5-.8,1.2-1.4,2.1-1.7.8-.3,1.8-.5,2.7-.3s1.7.6,2.4,1.3,1.1,1.5,1.3,2.4c.2.9,0,1.8-.3,2.7-.3.8-1,1.6-1.7,2.1-.8.5-1.6.8-2.6.8s-2.4-.5-3.3-1.4-1.4-2-1.4-3.3h0ZM320.1,87.2v9.3l-14.5-7-25.5,11.9v-9.6l15.6-7.1-15.6-7.6v-9.3l40,19.5h0Z" class="st0" data-v-0799c7b8=""></path></svg>