<svg width="22" height="22" viewBox="0 0 22 22" fill="none" xmlns="http://www.w3.org/2000/svg" data-v-84357b10="" class=""><path d="M1.83888 16.9006C1.33306 16.2502 5.56639 2.92492 6.75961 1.00252C6.76654 0.991344 6.76918 1.01656 6.78229 1.01752C9.27098 1.20008 18.0655 1.63615 20.511 2.78152C21.1788 3.09429 17.5594 19.6548 16.6291 19.5035C15.0622 19.2488 2.78789 18.1209 1.83888 16.9006Z" stroke="#5B636F" stroke-width="1.3" stroke-linecap="round" data-v-84357b10=""></path><path d="M2.25226 17.2339C2.16965 17.7857 2.26197 18.9824 3.33307 19.234C5.32699 19.7024 14.9323 20.9988 15.2767 20.9988C15.6212 20.9988 16.2017 19.9106 15.9261 19.7646" stroke="#5B636F" stroke-width="1.3" stroke-linecap="round" data-v-84357b10=""></path><path d="M7.78232 3.28649C5.24158 0.686086 1.88523 3.93894 4.80696 5.51398" stroke="#5B636F" stroke-width="1.3" stroke-linecap="round" data-v-84357b10=""></path><path d="M6.37485 7.68346C3.8341 5.08306 0.477755 8.33592 3.39949 9.91096" stroke="#5B636F" stroke-width="1.3" stroke-linecap="round" data-v-84357b10=""></path><path d="M5.10898 12.0804C2.56824 9.48003 -0.788114 12.7329 2.13362 14.3079" stroke="#5B636F" stroke-width="1.3" stroke-linecap="round" data-v-84357b10=""></path><ellipse cx="0.966935" cy="0.527852" rx="0.966935" ry="0.527852" transform="matrix(0.948093 -0.317993 0.316601 0.948559 6.82764 3.44727)" fill="#5B636F" data-v-84357b10=""></ellipse><ellipse cx="0.966935" cy="0.527852" rx="0.966935" ry="0.527852" transform="matrix(0.948089 -0.318005 0.316589 0.948563 5.41895 7.84424)" fill="#5B636F" data-v-84357b10=""></ellipse><ellipse cx="0.966935" cy="0.527852" rx="0.966935" ry="0.527852" transform="matrix(0.948089 -0.318005 0.316589 0.948563 4.15552 12.2388)" fill="#5B636F" data-v-84357b10=""></ellipse><path d="M9.31299 5.98145C13.2703 5.13866 13.0678 7.89427 16.4128 7.25892" stroke="#5B636F" stroke-width="1.3" stroke-linecap="round" data-v-84357b10=""></path><path d="M8.99683 9.7583C11.3369 8.88992 12.0688 11.3776 14.8984 10.4763" stroke="#5B636F" stroke-width="1.3" stroke-linecap="round" data-v-84357b10=""></path></svg>