<svg data-v-7694e3cc="" xmlns="http://www.w3.org/2000/svg" width="15" height="14" viewBox="0 0 15 14" fill="none" class=""><path data-v-7694e3cc="" d="M3.25 12.75V0.75V12.75ZM3.25 12.75C3.25 12.75 1.2415 10.7557 0.75 10.25L3.25 12.75ZM3.25 12.75C3.25 12.75 5.2585 10.7557 5.75 10.25L3.25 12.75Z" fill="#222222"></path><path data-v-7694e3cc="" d="M3.25 12.75V0.75M3.25 12.75C3.25 12.75 1.2415 10.7557 0.75 10.25M3.25 12.75C3.25 12.75 5.2585 10.7557 5.75 10.25" stroke="#222222" stroke-width="1.5" stroke-linecap="round" stroke-linejoin="round"></path><path data-v-7694e3cc="" d="M11.25 0.75V12.75V0.75ZM11.25 0.75C11.25 0.75 13.2585 2.7443 13.75 3.25L11.25 0.75ZM11.25 0.75C11.25 0.75 9.2415 2.7443 8.75 3.25L11.25 0.75Z" fill="#222222"></path><path data-v-7694e3cc="" d="M11.25 0.75V12.75M11.25 0.75C11.25 0.75 13.2585 2.7443 13.75 3.25M11.25 0.75C11.25 0.75 9.2415 2.7443 8.75 3.25" stroke="#222222" stroke-width="1.5" stroke-linecap="round" stroke-linejoin="round"></path></svg>