<svg width="20" height="22" viewBox="0 0 20 22" fill="none" xmlns="http://www.w3.org/2000/svg" data-v-84357b10="" class=""><path d="M0.852148 8.38327C0.852148 7.26738 0.860595 6.86386 0.980693 6.51582C1.08074 6.22589 1.23658 5.95835 1.43941 5.72829C1.68289 5.45212 2.02972 5.2457 3.00037 4.69518L7.88079 1.92714C8.8237 1.39235 9.16859 1.20595 9.52093 1.1375C9.81449 1.08046 10.1162 1.07998 10.41 1.13609C10.7625 1.20342 11.108 1.38871 12.0526 1.92051L16.9879 4.69897C17.9637 5.24831 18.3124 5.45437 18.5572 5.73084C18.7612 5.96116 18.9179 6.22928 19.0185 6.51999C19.1394 6.86897 19.1479 7.2739 19.1479 8.39369V13.8196C19.1479 14.9675 19.139 15.3826 19.013 15.7383C18.908 16.0346 18.7447 16.3068 18.5327 16.5388C18.2781 16.8174 17.916 17.0206 16.9032 17.5608L11.9675 20.1931C11.0593 20.6775 10.7276 20.8461 10.3903 20.9076C10.1093 20.9589 9.82122 20.9584 9.54032 20.9063C9.20324 20.8438 8.87203 20.6741 7.96536 20.1869L3.0853 17.5648C2.07751 17.0233 1.71721 16.8197 1.46399 16.5414C1.25307 16.3096 1.09064 16.038 0.986276 15.7424L0.373375 15.9589L0.986276 15.7424C0.86098 15.3877 0.852148 14.9739 0.852148 13.8299V8.38327Z" stroke="#5B636F" stroke-width="1.3" data-v-84357b10=""></path><path d="M9.97534 10.7793L9.97534 20.6635" stroke="#5B636F" stroke-width="1.3" stroke-linecap="round" data-v-84357b10=""></path><path d="M1.26025 6.04639L7.66224 9.51592C8.53994 9.99159 8.9788 10.2294 9.44402 10.3159C9.80637 10.3832 10.178 10.3832 10.5404 10.3159C11.0056 10.2294 11.4444 9.99159 12.3221 9.51592L18.7241 6.04639" stroke="#5B636F" stroke-width="1.3" stroke-linecap="round" data-v-84357b10=""></path><ellipse cx="12.8265" cy="12.5926" rx="0.860007" ry="0.9734" transform="rotate(-6.229 12.8265 12.5926)" fill="#5B636F" data-v-84357b10=""></ellipse><ellipse cx="3.40914" cy="10.31" rx="0.860006" ry="0.9734" transform="rotate(15.0697 3.40914 10.31)" fill="#5B636F" data-v-84357b10=""></ellipse><ellipse cx="16.1019" cy="10.7816" rx="0.860007" ry="0.9734" transform="rotate(-6.229 16.1019 10.7816)" fill="#5B636F" data-v-84357b10=""></ellipse><ellipse cx="16.5111" cy="14.5389" rx="0.860007" ry="0.9734" transform="rotate(-6.229 16.5111 14.5389)" fill="#5B636F" data-v-84357b10=""></ellipse><ellipse cx="5.33639" cy="13.4277" rx="0.860006" ry="0.9734" transform="rotate(15.0697 5.33639 13.4277)" fill="#5B636F" data-v-84357b10=""></ellipse><ellipse cx="9.97481" cy="5.68256" rx="0.860006" ry="0.9734" transform="rotate(15.0697 9.97481 5.68256)" fill="#5B636F" data-v-84357b10=""></ellipse><ellipse cx="6.94015" cy="16.6074" rx="0.860006" ry="0.9734" transform="rotate(15.0697 6.94015 16.6074)" fill="#5B636F" data-v-84357b10=""></ellipse><ellipse cx="13.2358" cy="16.3436" rx="0.860007" ry="0.9734" transform="rotate(-6.229 13.2358 16.3436)" fill="#5B636F" data-v-84357b10=""></ellipse></svg>