<svg data-v-ef6b5102="" width="16px" height="16px" viewBox="0 0 1254 1259" fill="none" xmlns="http://www.w3.org/2000/svg" class=""><path data-v-ef6b5102="" d="M0.132814 629.151C0.132814 753.588 36.8943 875.229 105.768 978.694C174.643 1082.16 272.536 1162.8 387.069 1210.42C501.601 1258.03 627.629 1270.49 749.215 1246.21C870.801 1221.93 982.484 1162.01 1070.14 1074.01C1157.8 986.02 1217.49 873.911 1241.67 751.865C1265.85 629.819 1253.43 503.316 1205.98 388.354C1158.53 273.393 1078.19 175.136 975.11 106.009C872.029 36.8826 750.842 -0.00893969 626.874 1.62493e-06C544.565 1.41161e-06 463.063 16.2738 387.02 47.8922C310.977 79.5106 241.884 125.854 183.685 184.277C125.486 242.7 79.3217 312.057 47.8277 388.389C16.3337 464.721 0.126899 546.532 0.132814 629.151ZM177.76 512.923C177.76 497.661 182.269 482.741 190.717 470.05C199.164 457.36 211.171 447.469 225.219 441.628C239.267 435.787 254.725 434.259 269.638 437.237C284.551 440.214 298.249 447.564 309.001 458.356C319.753 469.149 327.075 482.899 330.041 497.868C333.007 512.838 331.485 528.354 325.666 542.454C319.847 556.555 309.994 568.607 297.351 577.087C284.708 585.566 269.845 590.092 254.639 590.092C234.253 590.08 214.706 581.946 200.291 567.477C185.876 553.007 177.772 533.386 177.76 512.923ZM177.76 744.43C177.76 729.168 182.269 714.248 190.717 701.557C199.164 688.867 211.171 678.976 225.219 673.135C239.267 667.294 254.725 665.766 269.638 668.744C284.551 671.722 298.249 679.071 309.001 689.863C319.753 700.656 327.075 714.406 330.041 729.375C333.007 744.345 331.485 759.861 325.666 773.962C319.847 788.062 309.994 800.115 297.351 808.594C284.708 817.073 269.845 821.599 254.639 821.599C234.25 821.599 214.695 813.469 200.278 798.997C185.86 784.525 177.76 764.897 177.76 744.43ZM1068.38 672.098V826.391L829.677 709.801L408.352 907.493V748.002L665.606 629.694L408.352 504.198V349.86L1068.38 672.098Z" fill="#FD03C6"></path></svg>